<?xml version="1.0" encoding="UTF-8"?>
<svg id="Layer_2" data-name="Layer 2" xmlns="http://www.w3.org/2000/svg" viewBox="0 0 32 32">
  <defs>
    <style>
      .cls-1 {
        fill: #7685f7;
      }

      .cls-2 {
        fill: none;
        stroke: #7685f7;
        stroke-miterlimit: 10;
        stroke-width: 2px;
      }
    </style>
  </defs>
  <g id="Layer_1_copy_2" data-name="Layer 1 copy 2">
    <g>
      <path class="cls-2" d="M16,31c-8.27,0-15-6.73-15-15S7.73,1,16,1s15,6.73,15,15-6.73,15-15,15Z"/>
      <g>
        <g>
          <path class="cls-1" d="M11.62,16c0,2.42,1.96,4.38,4.38,4.38v-8.76c-2.42,0-4.38,1.96-4.38,4.38Z"/>
          <path class="cls-1" d="M16,4.82v6.8c2.42,0,4.38,1.96,4.38,4.38s-1.96,4.38-4.38,4.38v6.8c6.17,0,11.18-5.01,11.18-11.18s-5.01-11.18-11.18-11.18Z"/>
        </g>
        <path class="cls-2" d="M16,5.82c-5.62,0-10.18,4.56-10.18,10.18s4.56,10.18,10.18,10.18"/>
      </g>
    </g>
  </g>
</svg>