<?xml version="1.0" encoding="UTF-8"?>
<svg id="uuid-e12e66e3-b827-46de-958d-507fe273e7bf" data-name="Layer_2" xmlns="http://www.w3.org/2000/svg" width="1143.7182" height="477.4084" viewBox="0 0 1143.7182 477.4084">
  <defs>
    <style>
      .uuid-6d64523e-5b32-4352-a477-01ae01f5aa47 {
        fill: #fff;
      }

      .uuid-ee4ae926-34a7-43fc-91f3-b3fee17da55d {
        fill: #7685f7;
      }

      .uuid-2deac7be-49d7-4765-8d29-9f00d78730f6 {
        fill: #bffb50;
      }
    </style>
  </defs>
  <g id="uuid-a16d5c41-c6d4-4a48-8d73-a9164323b4ed" data-name="Layer_1">
    <g>
      <rect class="uuid-6d64523e-5b32-4352-a477-01ae01f5aa47" width="1143.7182" height="477.4084"/>
      <g>
        <g>
          <path d="M184.5114,315.3046v29.6206c0,4.3438-1.2876,7.7119-3.8608,10.105-2.5747,2.3926-6.5562,3.5894-11.9448,3.5894-4.1836,0-7.5815-.9351-10.1953-2.8052-2.6152-1.8701-4.063-4.5151-4.3438-7.9331h6.6357c.4019,1.729,1.3276,3.0664,2.7754,4.0122,1.4478.9443,3.3179,1.4175,5.6104,1.4175,5.9121,0,8.8682-2.876,8.8682-8.627v-3.4385c-2.2529,3.3784-5.6104,5.0674-10.0747,5.0674-2.8154,0-5.3296-.6333-7.541-1.9004-2.2124-1.2666-3.9419-3.0767-5.188-5.4292-1.2471-2.353-1.8701-5.1372-1.8701-8.3555,0-3.0967.6333-5.8311,1.9004-8.2046,1.2666-2.3726,3.0059-4.2124,5.2183-5.52,2.2114-1.3062,4.7056-1.9604,7.4805-1.9604,2.332,0,4.3438.4629,6.0327,1.3872,1.689.9258,3.0562,2.1929,4.1021,3.8008l.7241-4.8262h5.6709ZM175.5826,338.0179c1.6489-1.8701,2.4736-4.293,2.4736-7.2695,0-3.0562-.8247-5.5396-2.4736-7.4502-1.6494-1.9102-3.8213-2.8657-6.5151-2.8657s-4.8667.9453-6.5156,2.8354c-1.6494,1.8906-2.4731,4.3433-2.4731,7.3599s.8237,5.4697,2.4731,7.3599c1.6489,1.8911,3.8208,2.8354,6.5156,2.8354s4.8657-.9351,6.5151-2.8052Z"/>
          <path d="M191.6603,322.4535c1.2666-2.3926,3.0361-4.2427,5.3086-5.5503,2.2715-1.3062,4.876-1.9604,7.8125-1.9604,2.9756,0,5.6001.603,7.8726,1.8096,2.272,1.2065,4.062,2.9165,5.3691,5.1279,1.3066,2.2124,1.9805,4.8066,2.021,7.7822,0,.8052-.0601,1.6289-.1807,2.4736h-23.2866v.3618c.1602,2.6948,1.0049,4.8262,2.5337,6.3945,1.5278,1.5688,3.5596,2.353,6.0933,2.353,2.0103,0,3.6997-.4722,5.0674-1.418,1.3667-.9443,2.2715-2.2817,2.7148-4.0117h6.5151c-.5635,3.1372-2.0811,5.7114-4.5547,7.7222-2.4731,2.0112-5.5605,3.0161-9.2603,3.0161-3.2183,0-6.0234-.6533-8.4155-1.9604-2.3936-1.3066-4.2437-3.1465-5.5503-5.52-1.3071-2.3726-1.9604-5.1279-1.9604-8.2646,0-3.1768.6333-5.9624,1.9004-8.3555ZM213.4083,327.37c-.2822-2.252-1.1768-4.0117-2.6846-5.2783-1.5083-1.2671-3.4087-1.9004-5.7012-1.9004-2.1323,0-3.9722.6538-5.52,1.9604-1.5488,1.3076-2.4434,3.0464-2.6846,5.2183h16.5903Z"/>
          <path d="M250.5392,318.3212c2.3125,2.2524,3.4688,5.8721,3.4688,10.8589v17.0122h-6.5757v-16.6504c0-2.9355-.624-5.1675-1.8701-6.6963-1.2471-1.5278-3.0767-2.2925-5.4897-2.2925-2.5742,0-4.5952.8955-6.063,2.6846-1.4683,1.79-2.2017,4.2529-2.2017,7.3901v15.5645h-6.5156v-30.8877h5.6709l.7241,4.042c2.332-2.9355,5.6299-4.4038,9.8936-4.4038,3.6592,0,6.6455,1.1265,8.9585,3.3784Z"/>
          <path d="M260.6735,322.4535c1.2666-2.3926,3.0361-4.2427,5.3086-5.5503,2.2715-1.3062,4.876-1.9604,7.8125-1.9604,2.9756,0,5.6001.603,7.8726,1.8096,2.272,1.2065,4.062,2.9165,5.3691,5.1279,1.3066,2.2124,1.9805,4.8066,2.021,7.7822,0,.8052-.0601,1.6289-.1807,2.4736h-23.2866v.3618c.1602,2.6948,1.0049,4.8262,2.5337,6.3945,1.5278,1.5688,3.5596,2.353,6.0933,2.353,2.0103,0,3.6997-.4722,5.0674-1.418,1.3667-.9443,2.2715-2.2817,2.7148-4.0117h6.5151c-.5635,3.1372-2.0811,5.7114-4.5547,7.7222-2.4731,2.0112-5.5605,3.0161-9.2603,3.0161-3.2183,0-6.0234-.6533-8.4155-1.9604-2.3936-1.3066-4.2437-3.1465-5.5503-5.52-1.3071-2.3726-1.9604-5.1279-1.9604-8.2646,0-3.1768.6333-5.9624,1.9004-8.3555ZM282.4215,327.37c-.2822-2.252-1.1768-4.0117-2.6846-5.2783-1.5083-1.2671-3.4087-1.9004-5.7012-1.9004-2.1323,0-3.9722.6538-5.52,1.9604-1.5488,1.3076-2.4434,3.0464-2.6846,5.2183h16.5903Z"/>
          <path d="M311.3781,315.3046v6.0933h-2.8955c-2.6953,0-4.6455.8745-5.8521,2.624s-1.8096,3.9722-1.8096,6.666v15.5044h-6.5156v-30.8877h5.7915l.7241,4.645c.8838-1.4478,2.0303-2.5835,3.4385-3.4082,1.4072-.8237,3.2974-1.2368,5.6709-1.2368h1.4478Z"/>
          <path d="M343.8947,340.5213v5.6709h-3.4385c-2.0117,0-3.4595-.4224-4.3438-1.2671-.8853-.8442-1.3271-2.0708-1.3271-3.6797-2.333,3.5396-5.731,5.3086-10.1953,5.3086-3.4595,0-6.2344-.8037-8.3252-2.4131-2.0918-1.6079-3.1372-3.8203-3.1372-6.6357,0-3.1768,1.1255-5.6201,3.3784-7.3301,2.252-1.709,5.5293-2.564,9.8335-2.564h7.7822v-1.8701c0-1.7285-.6035-3.0859-1.8101-4.0718-1.2065-.9854-2.876-1.478-5.0068-1.478-1.8911,0-3.4492.4126-4.6758,1.2363-1.2271.8252-1.9604,1.9214-2.2017,3.2881h-6.395c.3218-3.0967,1.6895-5.499,4.1025-7.209,2.4131-1.709,5.5698-2.564,9.4712-2.564,4.1421,0,7.3394.9653,9.5923,2.8955,2.252,1.9307,3.3784,4.7056,3.3784,8.3252v12.186c0,1.4482.6831,2.1719,2.0508,2.1719h1.2671ZM334.1217,332.4374h-8.084c-2.0117,0-3.5591.3926-4.645,1.1768s-1.6289,1.9409-1.6289,3.4688c0,1.3271.5127,2.3931,1.5381,3.1973,1.0259.8052,2.4229,1.2065,4.1929,1.2065,2.6938,0,4.7959-.7241,6.3042-2.1719s2.2822-3.3784,2.3228-5.7915v-1.0859Z"/>
          <path d="M349.4445,321.0355h-5.3691v-5.731h5.3691v-8.627h6.5757v8.627h7.4204v5.731h-7.4204v16.1074c0,1.2065.2417,2.0615.7241,2.564.4824.5034,1.3066.7544,2.4736.7544h4.9468v5.731h-6.2744c-2.936,0-5.0776-.6836-6.4248-2.0513-1.3477-1.3667-2.021-3.478-2.021-6.3345v-16.771Z"/>
          <path d="M373.756,304.0536c.7632.7446,1.146,1.6797,1.146,2.8052,0,1.1265-.3828,2.0615-1.146,2.8052-.7646.7446-1.71,1.1162-2.8354,1.1162-1.1265,0-2.0718-.3716-2.8354-1.1162-.7646-.7437-1.146-1.6787-1.146-2.8052,0-1.1255.3813-2.0605,1.146-2.8052.7637-.7437,1.709-1.1162,2.8354-1.1162,1.1255,0,2.0708.3726,2.8354,1.1162ZM367.6627,315.3046h6.5156v30.8877h-6.5156v-30.8877Z"/>
          <path d="M377.4957,315.3046h6.998l8.5063,23.8896,8.3853-23.8896h6.8774l-11.4019,30.8877h-7.9634l-11.4019-30.8877Z"/>
          <path d="M411.1285,322.4535c1.2666-2.3926,3.0361-4.2427,5.3086-5.5503,2.2715-1.3062,4.876-1.9604,7.8125-1.9604,2.9756,0,5.6001.603,7.8726,1.8096,2.272,1.2065,4.062,2.9165,5.3691,5.1279,1.3066,2.2124,1.9805,4.8066,2.021,7.7822,0,.8052-.0601,1.6289-.1807,2.4736h-23.2866v.3618c.1602,2.6948,1.0049,4.8262,2.5337,6.3945,1.5278,1.5688,3.5596,2.353,6.0933,2.353,2.0103,0,3.6997-.4722,5.0674-1.418,1.3667-.9443,2.2715-2.2817,2.7148-4.0117h6.5151c-.5635,3.1372-2.0811,5.7114-4.5547,7.7222-2.4731,2.0112-5.5605,3.0161-9.2603,3.0161-3.2183,0-6.0234-.6533-8.4155-1.9604-2.3936-1.3066-4.2437-3.1465-5.5503-5.52-1.3071-2.3726-1.9604-5.1279-1.9604-8.2646,0-3.1768.6333-5.9624,1.9004-8.3555ZM432.8766,327.37c-.2822-2.252-1.1768-4.0117-2.6846-5.2783-1.5083-1.2671-3.4087-1.9004-5.7012-1.9004-2.1323,0-3.9722.6538-5.52,1.9604-1.5488,1.3076-2.4434,3.0464-2.6846,5.2183h16.5903Z"/>
          <path d="M484.275,316.8431c2.2114,1.2666,3.9409,3.0869,5.188,5.4595,1.2461,2.3735,1.8701,5.188,1.8701,8.4458,0,3.0977-.624,5.8423-1.8701,8.2349-1.2471,2.3931-2.9766,4.2529-5.188,5.5801-2.2124,1.3271-4.7266,1.9907-7.541,1.9907-2.2925,0-4.2832-.4316-5.9722-1.2969-1.6895-.8643-3.0571-2.041-4.1025-3.5293l-.7842,4.4644h-5.6709v-42.229h6.5156v15.9263c2.4526-3.2974,5.7915-4.9468,10.0142-4.9468,2.8145,0,5.3286.6333,7.541,1.9004ZM482.1935,338.1991c1.6685-1.9102,2.5039-4.3936,2.5039-7.4507,0-3.0166-.8354-5.4795-2.5039-7.3901-1.6689-1.9097-3.8516-2.8657-6.5454-2.8657s-4.8667.9458-6.5151,2.8354c-1.6499,1.8911-2.4736,4.3438-2.4736,7.3599,0,3.0571.8237,5.5503,2.4736,7.481,1.6484,1.9302,3.8203,2.8955,6.5151,2.8955s4.8765-.9546,6.5454-2.8652Z"/>
          <path d="M513.6544,315.3046v6.0933h-2.8955c-2.6953,0-4.6455.8745-5.8521,2.624s-1.8096,3.9722-1.8096,6.666v15.5044h-6.5156v-30.8877h5.7915l.7241,4.645c.8838-1.4478,2.0303-2.5835,3.4385-3.4082,1.4072-.8237,3.2974-1.2368,5.6709-1.2368h1.4478Z"/>
          <path d="M546.171,340.5213v5.6709h-3.4385c-2.0117,0-3.4595-.4224-4.3438-1.2671-.8853-.8442-1.3271-2.0708-1.3271-3.6797-2.333,3.5396-5.731,5.3086-10.1953,5.3086-3.4595,0-6.2344-.8037-8.3252-2.4131-2.0918-1.6079-3.1372-3.8203-3.1372-6.6357,0-3.1768,1.1255-5.6201,3.3784-7.3301,2.252-1.709,5.5293-2.564,9.8335-2.564h7.7822v-1.8701c0-1.7285-.6035-3.0859-1.8101-4.0718-1.2065-.9854-2.876-1.478-5.0068-1.478-1.8911,0-3.4492.4126-4.6758,1.2363-1.2271.8252-1.9604,1.9214-2.2017,3.2881h-6.395c.3218-3.0967,1.6895-5.499,4.1025-7.209,2.4131-1.709,5.5698-2.564,9.4712-2.564,4.1421,0,7.3394.9653,9.5923,2.8955,2.252,1.9307,3.3784,4.7056,3.3784,8.3252v12.186c0,1.4482.6831,2.1719,2.0508,2.1719h1.2671ZM536.3981,332.4374h-8.084c-2.0117,0-3.5591.3926-4.645,1.1768s-1.6289,1.9409-1.6289,3.4688c0,1.3271.5127,2.3931,1.5381,3.1973,1.0259.8052,2.4229,1.2065,4.1929,1.2065,2.6938,0,4.7959-.7241,6.3042-2.1719s2.2822-3.3784,2.3228-5.7915v-1.0859Z"/>
          <path d="M574.9772,318.3212c2.3125,2.2524,3.4688,5.8721,3.4688,10.8589v17.0122h-6.5762v-16.6504c0-2.9355-.624-5.1675-1.8701-6.6963-1.2471-1.5278-3.0762-2.2925-5.4893-2.2925-2.5742,0-4.5957.8955-6.0635,2.6846-1.4678,1.79-2.2012,4.2529-2.2012,7.3901v15.5645h-6.5161v-30.8877h5.6714l.7236,4.042c2.332-2.9355,5.6299-4.4038,9.8936-4.4038,3.6592,0,6.6455,1.1265,8.959,3.3784Z"/>
          <path d="M614.3405,303.9632v42.229h-5.6709l-.7842-4.645c-2.4541,3.3384-5.8125,5.0068-10.0752,5.0068-2.8154,0-5.3291-.6333-7.541-1.9004-2.2119-1.2666-3.9414-3.0962-5.1875-5.4897-1.2471-2.3921-1.8701-5.1973-1.8701-8.4155,0-3.1372.6328-5.9019,1.9004-8.2949,1.2666-2.3926,3.0059-4.2427,5.2178-5.5503,2.2119-1.3062,4.7061-1.9604,7.4805-1.9604,2.252,0,4.2236.4126,5.9121,1.2368,1.6895.8247,3.0566,1.9604,4.1025,3.4082v-15.6245h6.5156ZM605.4117,338.2289c1.6484-1.8896,2.4736-4.3433,2.4736-7.3599,0-3.0962-.8252-5.6001-2.4736-7.5107-1.6494-1.9097-3.8213-2.8657-6.5156-2.8657s-4.8662.9561-6.5156,2.8657c-1.6494,1.9106-2.4727,4.3735-2.4727,7.3901,0,3.0571.8232,5.5405,2.4727,7.4507,1.6494,1.9106,3.8213,2.8652,6.5156,2.8652s4.8662-.9443,6.5156-2.8354Z"/>
          <path d="M626.8278,304.0536c.7637.7446,1.1465,1.6797,1.1465,2.8052,0,1.1265-.3828,2.0615-1.1465,2.8052-.7646.7446-1.71,1.1162-2.835,1.1162-1.127,0-2.0723-.3716-2.8359-1.1162-.7646-.7437-1.1455-1.6787-1.1455-2.8052,0-1.1255.3809-2.0605,1.1455-2.8052.7637-.7437,1.709-1.1162,2.8359-1.1162,1.125,0,2.0703.3726,2.835,1.1162ZM620.735,315.3046h6.5156v30.8877h-6.5156v-30.8877Z"/>
          <path d="M658.8912,318.3212c2.3125,2.2524,3.4688,5.8721,3.4688,10.8589v17.0122h-6.5752v-16.6504c0-2.9355-.624-5.1675-1.8701-6.6963-1.2471-1.5278-3.0771-2.2925-5.4902-2.2925-2.5742,0-4.5947.8955-6.0625,2.6846-1.4688,1.79-2.2021,4.2529-2.2021,7.3901v15.5645h-6.5156v-30.8877h5.6709l.7236,4.042c2.332-2.9355,5.6309-4.4038,9.8936-4.4038,3.6592,0,6.6455,1.1265,8.959,3.3784Z"/>
          <path d="M698.2545,315.3046v29.6206c0,4.3438-1.2871,7.7119-3.8604,10.105-2.5742,2.3926-6.5557,3.5894-11.9453,3.5894-4.1826,0-7.5811-.9351-10.1953-2.8052s-4.0625-4.5151-4.3438-7.9331h6.6367c.4014,1.729,1.3271,3.0664,2.7744,4.0122,1.4482.9443,3.3184,1.4175,5.6113,1.4175,5.9111,0,8.8672-2.876,8.8672-8.627v-3.4385c-2.252,3.3784-5.6104,5.0674-10.0742,5.0674-2.8154,0-5.3291-.6333-7.541-1.9004-2.2119-1.2666-3.9424-3.0767-5.1885-5.4292-1.2471-2.353-1.8701-5.1372-1.8701-8.3555,0-3.0967.6338-5.8311,1.9004-8.2046,1.2676-2.3726,3.0059-4.2124,5.2188-5.52,2.2109-1.3062,4.7051-1.9604,7.4805-1.9604,2.332,0,4.3438.4629,6.0332,1.3872,1.6885.9258,3.0557,2.1929,4.1016,3.8008l.7246-4.8262h5.6699ZM689.3268,338.0179c1.6484-1.8701,2.4727-4.293,2.4727-7.2695,0-3.0562-.8242-5.5396-2.4727-7.4502-1.6494-1.9102-3.8213-2.8657-6.5156-2.8657s-4.8672.9453-6.5156,2.8354c-1.6494,1.8906-2.4736,4.3433-2.4736,7.3599s.8242,5.4697,2.4736,7.3599c1.6484,1.8911,3.8203,2.8354,6.5156,2.8354s4.8662-.9351,6.5156-2.8052Z"/>
          <path d="M711.5866,340.4007c1.0049,1.3271,1.5088,2.9771,1.5088,4.9468,0,2.896-.8652,5.1479-2.5947,6.7568-1.7295,1.6079-4.1016,2.4331-7.1182,2.4736v-3.499c1.7695-.0405,3.0967-.5034,3.9814-1.3877.8838-.8853,1.3271-1.9307,1.3271-3.1372,0-.3618-.0205-.623-.0605-.7842-.5225.4023-1.1865.6035-1.9902.6035-1.0469,0-1.9004-.332-2.5645-.9956-.6631-.6636-.9951-1.6187-.9951-2.8657,0-1.166.4219-2.1416,1.2666-2.9258s1.9502-1.1763,3.3184-1.1763c1.6084,0,2.915.6636,3.9209,1.9907Z"/>
          <path d="M739.9703,344.5936c-2.3926-1.3066-4.2432-3.1567-5.5498-5.5503-1.3076-2.3921-1.9609-5.1577-1.9609-8.2949,0-3.0967.6533-5.8413,1.9609-8.2349,1.3066-2.3921,3.1572-4.2529,5.5498-5.5801s5.1377-1.9907,8.2354-1.9907,5.8408.6636,8.2344,1.9907c2.3926,1.3271,4.2432,3.188,5.5498,5.5801,1.3066,2.3936,1.9609,5.1382,1.9609,8.2349,0,3.1372-.6543,5.9028-1.9609,8.2949-1.3066,2.3936-3.1572,4.2437-5.5498,5.5503-2.3936,1.3071-5.1377,1.9604-8.2344,1.9604s-5.8428-.6533-8.2354-1.9604ZM754.8112,338.1385c1.6689-1.9097,2.5039-4.3735,2.5039-7.3901s-.835-5.4795-2.5039-7.3901c-1.6689-1.9097-3.8711-2.8657-6.6055-2.8657s-4.9277.9561-6.5762,2.8657c-1.6494,1.9106-2.4736,4.3735-2.4736,7.3901s.8242,5.4805,2.4736,7.3901c1.6484,1.9106,3.8408,2.8657,6.5762,2.8657s4.9365-.9551,6.6055-2.8657Z"/>
          <path d="M793.2692,316.8431c2.2119,1.2666,3.9414,3.0972,5.1885,5.4897,1.2461,2.3931,1.8701,5.1982,1.8701,8.4155,0,3.1372-.624,5.9028-1.8701,8.2949-1.2471,2.3936-2.9766,4.2437-5.1885,5.5503-2.2119,1.3071-4.7256,1.9604-7.54,1.9604-2.293,0-4.2842-.4224-5.9727-1.2666-1.6895-.8447-3.0371-1.9907-4.042-3.439v16.4092h-6.5156v-42.9531h5.6709l.7842,4.585c2.4932-3.2974,5.8516-4.9468,10.0752-4.9468,2.8145,0,5.3281.6333,7.54,1.9004ZM791.1881,338.1688c1.6689-1.9307,2.5039-4.4038,2.5039-7.4204,0-3.0562-.835-5.5293-2.5039-7.4204-1.6689-1.8896-3.8516-2.8354-6.5449-2.8354-2.6953,0-4.8672.9351-6.5156,2.8057-1.6494,1.8701-2.4736,4.313-2.4736,7.3296,0,3.0972.8242,5.6104,2.4736,7.541,1.6484,1.9302,3.8203,2.8955,6.5156,2.8955,2.6934,0,4.876-.9653,6.5449-2.8955Z"/>
          <path d="M806.3297,322.4535c1.2676-2.3926,3.0361-4.2427,5.3096-5.5503,2.2715-1.3062,4.876-1.9604,7.8115-1.9604,2.9766,0,5.6006.603,7.873,1.8096,2.2715,1.2065,4.0615,2.9165,5.3691,5.1279,1.3066,2.2124,1.9805,4.8066,2.0215,7.7822,0,.8052-.0605,1.6289-.1816,2.4736h-23.2861v.3618c.1602,2.6948,1.0049,4.8262,2.5342,6.3945,1.5273,1.5688,3.5586,2.353,6.0928,2.353,2.0107,0,3.6992-.4722,5.0674-1.418,1.3672-.9443,2.2715-2.2817,2.7148-4.0117h6.5156c-.5645,3.1372-2.082,5.7114-4.5547,7.7222-2.4736,2.0112-5.5605,3.0161-9.2607,3.0161-3.2178,0-6.0234-.6533-8.416-1.9604-2.3926-1.3066-4.2432-3.1465-5.5498-5.52-1.3076-2.3726-1.9609-5.1279-1.9609-8.2646,0-3.1768.6338-5.9624,1.9004-8.3555ZM828.0778,327.37c-.2812-2.252-1.1758-4.0117-2.6846-5.2783-1.5078-1.2671-3.4082-1.9004-5.7002-1.9004-2.1328,0-3.9727.6538-5.5205,1.9604-1.5488,1.3076-2.4434,3.0464-2.6846,5.2183h16.5898Z"/>
          <path d="M865.2096,318.3212c2.3125,2.2524,3.4688,5.8721,3.4688,10.8589v17.0122h-6.5752v-16.6504c0-2.9355-.624-5.1675-1.8701-6.6963-1.2471-1.5278-3.0771-2.2925-5.4902-2.2925-2.5742,0-4.5947.8955-6.0625,2.6846-1.4688,1.79-2.2021,4.2529-2.2021,7.3901v15.5645h-6.5156v-30.8877h5.6709l.7236,4.042c2.332-2.9355,5.6309-4.4038,9.8936-4.4038,3.6592,0,6.6455,1.1265,8.959,3.3784Z"/>
          <path d="M892.025,321.0355h-5.3691v-5.731h5.3691v-8.627h6.5752v8.627h7.4209v5.731h-7.4209v16.1074c0,1.2065.2412,2.0615.7236,2.564.4834.5034,1.3066.7544,2.4736.7544h4.9473v5.731h-6.2744c-2.9355,0-5.0781-.6836-6.4248-2.0513-1.3477-1.3667-2.0205-3.478-2.0205-6.3345v-16.771Z"/>
          <path d="M915.944,344.5936c-2.3926-1.3066-4.2432-3.1567-5.5498-5.5503-1.3076-2.3921-1.9609-5.1577-1.9609-8.2949,0-3.0967.6533-5.8413,1.9609-8.2349,1.3066-2.3921,3.1572-4.2529,5.5498-5.5801s5.1377-1.9907,8.2354-1.9907,5.8408.6636,8.2344,1.9907c2.3926,1.3271,4.2432,3.188,5.5498,5.5801,1.3066,2.3936,1.9609,5.1382,1.9609,8.2349,0,3.1372-.6543,5.9028-1.9609,8.2949-1.3066,2.3936-3.1572,4.2437-5.5498,5.5503-2.3936,1.3071-5.1377,1.9604-8.2344,1.9604s-5.8428-.6533-8.2354-1.9604ZM930.7848,338.1385c1.6689-1.9097,2.5039-4.3735,2.5039-7.3901s-.835-5.4795-2.5039-7.3901c-1.6689-1.9097-3.8711-2.8657-6.6055-2.8657s-4.9277.9561-6.5762,2.8657c-1.6494,1.9106-2.4736,4.3735-2.4736,7.3901s.8242,5.4805,2.4736,7.3901c1.6484,1.9106,3.8408,2.8657,6.5762,2.8657s4.9365-.9551,6.6055-2.8657Z"/>
          <path d="M990.1764,340.5213v5.6709h-3.4385c-2.0117,0-3.46-.4224-4.3438-1.2671-.8848-.8442-1.3271-2.0708-1.3271-3.6797-2.333,3.5396-5.7314,5.3086-10.1953,5.3086-3.46,0-6.2344-.8037-8.3252-2.4131-2.0918-1.6079-3.1367-3.8203-3.1367-6.6357,0-3.1768,1.125-5.6201,3.3779-7.3301,2.252-1.709,5.5293-2.564,9.833-2.564h7.7822v-1.8701c0-1.7285-.6025-3.0859-1.8096-4.0718-1.2061-.9854-2.876-1.478-5.0068-1.478-1.8906,0-3.4492.4126-4.6758,1.2363-1.2275.8252-1.96,1.9214-2.2021,3.2881h-6.3945c.3213-3.0967,1.6895-5.499,4.1025-7.209,2.4131-1.709,5.5703-2.564,9.4717-2.564,4.1416,0,7.3389.9653,9.5918,2.8955,2.252,1.9307,3.3779,4.7056,3.3779,8.3252v12.186c0,1.4482.6836,2.1719,2.0518,2.1719h1.2666ZM980.403,332.4374h-8.083c-2.0117,0-3.5596.3926-4.6455,1.1768s-1.6289,1.9409-1.6289,3.4688c0,1.3271.5127,2.3931,1.5381,3.1973,1.0254.8052,2.4229,1.2065,4.1934,1.2065,2.6934,0,4.7959-.7241,6.3037-2.1719s2.2822-3.3784,2.3223-5.7915v-1.0859Z"/>
          <path d="M993.736,303.9632h6.5156v42.229h-6.5156v-42.229Z"/>
          <path d="M1006.6451,303.9632h6.5156v42.229h-6.5156v-42.229Z"/>
          <path d="M1020.1276,339.496c.7842-.7637,1.7793-1.1465,2.9863-1.1465,1.2061,0,2.2109.3828,3.0166,1.1465.8037.7642,1.2061,1.7495,1.2061,2.9561s-.4023,2.1924-1.2061,2.9561c-.8057.7642-1.8105,1.146-3.0166,1.146-1.207,0-2.2021-.3818-2.9863-1.146-.7842-.7637-1.1768-1.7495-1.1768-2.9561s.3926-2.1919,1.1768-2.9561Z"/>
        </g>
        <g>
          <rect class="uuid-ee4ae926-34a7-43fc-91f3-b3fee17da55d" x="824.9522" y="377.0107" width="202.0835" height="36.3539"/>
          <g>
            <path class="uuid-6d64523e-5b32-4352-a477-01ae01f5aa47" d="M839.7767,388.0809c.2391.2335.358.5258.358.8783s-.1189.6448-.358.8776-.5351.3493-.8869.3493c-.353,0-.6491-.1164-.8882-.3493s-.358-.5252-.358-.8776.1189-.6448.358-.8783c.2391-.2323.5351-.3487.8882-.3487.3518,0,.6479.1164.8869.3487ZM837.8703,391.6013h2.0377v9.6651h-2.0377v-9.6651Z"/>
            <path class="uuid-6d64523e-5b32-4352-a477-01ae01f5aa47" d="M849.8091,392.5453c.7234.7048,1.0851,1.8376,1.0851,3.3978v5.3234h-2.0575v-5.2101c0-.9185-.1945-1.6165-.5847-2.0953-.3902-.4781-.9625-.7172-1.7181-.7172-.8052,0-1.4382.28-1.8965.8399-.4596.5605-.69,1.331-.69,2.3127v4.87h-2.0377v-9.6651h1.7739l.2267,1.2647c.7296-.9179,1.7615-1.3775,3.0956-1.3775,1.1446,0,2.0798.3524,2.8032,1.0566Z"/>
            <path class="uuid-6d64523e-5b32-4352-a477-01ae01f5aa47" d="M854.6513,388.0809c.2391.2335.358.5258.358.8783s-.1189.6448-.358.8776-.5351.3493-.8869.3493c-.353,0-.6491-.1164-.8882-.3493s-.358-.5252-.358-.8776.1189-.6448.358-.8783c.2391-.2323.5351-.3487.8882-.3487.3518,0,.6479.1164.8869.3487ZM852.7449,391.6013h2.0377v9.6651h-2.0377v-9.6651Z"/>
            <path class="uuid-6d64523e-5b32-4352-a477-01ae01f5aa47" d="M857.4074,393.395h-1.6809v-1.7937h1.6809v-2.6992h2.0575v2.6992h2.3214v1.7937h-2.3214v5.0397c0,.3778.0756.6454.2254.8027.1511.1573.4088.236.7742.236h1.5484v1.7931h-1.9634c-.9191,0-1.5893-.2137-2.0104-.6417s-.6317-1.0882-.6317-1.982v-5.2479Z"/>
            <path class="uuid-6d64523e-5b32-4352-a477-01ae01f5aa47" d="M865.0144,388.0809c.2391.2335.358.5258.358.8783s-.1189.6448-.358.8776-.5351.3493-.8869.3493c-.353,0-.6491-.1164-.8882-.3493s-.358-.5252-.358-.8776.1189-.6448.358-.8783c.2391-.2323.5351-.3487.8882-.3487.3518,0,.6479.1164.8869.3487ZM863.108,391.6013h2.0377v9.6651h-2.0377v-9.6651Z"/>
            <path class="uuid-6d64523e-5b32-4352-a477-01ae01f5aa47" d="M876.3971,399.492v1.7745h-1.0765c-.6293,0-1.0826-.1319-1.3589-.3964-.2775-.2645-.415-.6479-.415-1.1514-.7308,1.1074-1.7937,1.6611-3.191,1.6611-1.0826,0-1.951-.2515-2.605-.755s-.9811-1.1954-.9811-2.0767c0-.9941.3518-1.7584,1.0566-2.2935.7048-.5345,1.7305-.8021,3.077-.8021h2.4353v-.5853c0-.5407-.1883-.9656-.5661-1.274s-.9006-.4627-1.567-.4627c-.5921,0-1.0789.1294-1.4629.3871-.384.2583-.6132.6008-.6887,1.0288h-2.0018c.1016-.9687.5289-1.7206,1.2846-2.2557.7544-.5345,1.7429-.8021,2.963-.8021,1.2957,0,2.2966.3016,3.0014.9061.7048.6039,1.0579,1.4722,1.0579,2.6044v3.8134c0,.4528.2131.6794.6417.6794h.3964ZM873.3387,396.9625h-2.5295c-.6293,0-1.1136.1226-1.453.3679-.3406.2459-.5104.6076-.5104,1.0857,0,.415.161.7488.4819,1.0003.3208.2521.7581.3778,1.3118.3778.8423,0,1.5001-.2267,1.972-.6794.472-.4534.7147-1.0573.7271-1.8123v-.34Z"/>
            <path class="uuid-6d64523e-5b32-4352-a477-01ae01f5aa47" d="M878.1338,393.395h-1.6809v-1.7937h1.6809v-2.6992h2.0575v2.6992h2.3214v1.7937h-2.3214v5.0397c0,.3778.0756.6454.2254.8027.1511.1573.4088.236.7742.236h1.5484v1.7931h-1.9634c-.9191,0-1.5893-.2137-2.0104-.6417s-.6317-1.0882-.6317-1.982v-5.2479Z"/>
            <path class="uuid-6d64523e-5b32-4352-a477-01ae01f5aa47" d="M883.8616,393.8385c.3964-.7488.9501-1.3273,1.6611-1.7367.711-.4088,1.5261-.6132,2.4452-.6132.9303,0,1.7516.1883,2.4626.5661.711.3772,1.2709.9123,1.6797,1.6048.41.6918.6206,1.5038.633,2.4347,0,.2521-.0186.5097-.057.7742h-7.2862v.1133c.0508.843.3146,1.51.7928,2.0005.4781.4912,1.1136.7364,1.9064.7364.6293,0,1.1582-.148,1.5856-.4435.4286-.2961.711-.7141.8498-1.2554h2.0389c-.1771.9817-.6516,1.7869-1.4258,2.4161-.773.6293-1.7392.9439-2.8974.9439-1.0071,0-1.8841-.2044-2.6335-.6138-.7482-.4088-1.3279-.9842-1.7367-1.7268s-.6132-1.6048-.6132-2.5865c0-.9941.1982-1.8655.5946-2.6143ZM890.6672,395.377c-.0879-.7048-.3679-1.2554-.8399-1.6518s-1.0665-.5946-1.7838-.5946c-.6677,0-1.2437.205-1.728.6138s-.7643.9532-.8399,1.6326h5.1915Z"/>
            <path class="uuid-6d64523e-5b32-4352-a477-01ae01f5aa47" d="M903.7667,388.053v13.2135h-1.7739l-.2453-1.4536c-.768,1.0449-1.8184,1.567-3.1526,1.567-.8807,0-1.6673-.1982-2.3598-.5946s-1.2338-.9693-1.6227-1.7181c-.3902-.7482-.5859-1.6258-.5859-2.6329,0-.9817.1982-1.8469.5946-2.5957s.9402-1.3273,1.6326-1.7367c.6924-.4088,1.4728-.6132,2.3412-.6132.7048,0,1.3217.1288,1.8494.3865.5289.2583.9563.6138,1.2846,1.0665v-4.8886h2.0377ZM900.9733,398.7748c.5153-.5915.7742-1.3589.7742-2.3028,0-.9693-.2589-1.7522-.7742-2.3505-.5165-.5977-1.1954-.8962-2.0389-.8962s-1.5224.2985-2.0389.8962c-.5153.5983-.773,1.3688-.773,2.3127,0,.9563.2577,1.7336.773,2.3313.5165.5977,1.1954.8962,2.0389.8962s1.5224-.2954,2.0389-.8869Z"/>
            <path class="uuid-6d64523e-5b32-4352-a477-01ae01f5aa47" d="M918.1321,392.0832c.6924.3964,1.2325.9656,1.6227,1.7082s.5859,1.6233.5859,2.6428c0,.9693-.1957,1.8277-.5859,2.5765s-.9303,1.331-1.6227,1.746c-.6924.4156-1.479.6231-2.3598.6231-.7172,0-1.3403-.135-1.8692-.4057-.5277-.2707-.9563-.6386-1.2833-1.1043l-.2453,1.3967h-1.7739v-13.2135h2.0377v4.9834c.768-1.0319,1.8123-1.5478,3.134-1.5478.8807,0,1.6673.1982,2.3598.5946ZM917.4806,398.7655c.5227-.5977.7841-1.375.7841-2.3313,0-.9439-.2614-1.7144-.7841-2.3127-.5215-.5977-1.2053-.8962-2.0476-.8962-.8436,0-1.5236.2954-2.0389.8869-.5165.5915-.7742,1.3589-.7742,2.3028,0,.9569.2577,1.7367.7742,2.3406.5153.6045,1.1954.9061,2.0389.9061.8423,0,1.5261-.2985,2.0476-.8962Z"/>
            <path class="uuid-6d64523e-5b32-4352-a477-01ae01f5aa47" d="M922.8133,391.6013l2.6992,7.4565,2.6236-7.4565h2.1715l-4.3801,11.1751c-.2267.5791-.4336,1.0226-.6231,1.331-.1883.3084-.4212.5407-.6974.6986-.2775.1567-.6491.236-1.1136.236h-2.1901v-1.7937h1.4344c.3902,0,.6602-.0601.8114-.179.1511-.1202.3084-.3871.472-.8027l.3964-.9247-3.7756-9.7407h2.1715Z"/>
            <path class="uuid-6d64523e-5b32-4352-a477-01ae01f5aa47" d="M936.386,388.053h2.8131l4.2278,10.4009,4.1534-10.4009h2.7562v13.2135h-2.0959v-9.7215l-3.9639,9.7215h-1.8308l-3.9639-9.7215v9.7215h-2.0959v-13.2135Z"/>
            <path class="uuid-6d64523e-5b32-4352-a477-01ae01f5aa47" d="M961.2075,391.6013v9.6651h-1.7924l-.2267-1.227c-.7308.8937-1.7243,1.3403-2.9828,1.3403-1.1322,0-2.0513-.3524-2.7562-1.0573s-1.0566-1.837-1.0566-3.3978v-5.3234h2.0389v5.1159c0,.9439.1883,1.6611.5661,2.1517.3766.4912.9365.7364,1.6797.7364.7804,0,1.3898-.2861,1.8308-.8591.441-.5723.6602-1.3558.6602-2.3499v-4.7951h2.0389Z"/>
            <path class="uuid-6d64523e-5b32-4352-a477-01ae01f5aa47" d="M963.2093,388.053h2.0377v13.2135h-2.0377v-13.2135Z"/>
            <path class="uuid-6d64523e-5b32-4352-a477-01ae01f5aa47" d="M967.2488,388.9022h2.0377v2.6992h2.3412v1.7937h-2.3412v5.0397c0,.3778.0756.6454.2267.8027s.4088.236.7742.236h1.5484v1.7931h-1.9634c-.9191,0-1.5856-.2137-2.0005-.6417-.4162-.428-.6231-1.0882-.6231-1.982v-9.7407Z"/>
            <path class="uuid-6d64523e-5b32-4352-a477-01ae01f5aa47" d="M974.8558,388.0809c.2391.2335.358.5258.358.8783s-.1189.6448-.358.8776-.5351.3493-.8869.3493c-.353,0-.6491-.1164-.8882-.3493s-.358-.5252-.358-.8776.1189-.6448.358-.8783c.2391-.2323.5351-.3487.8882-.3487.3518,0,.6479.1164.8869.3487ZM972.9494,391.6013h2.0377v9.6651h-2.0377v-9.6651Z"/>
            <path class="uuid-6d64523e-5b32-4352-a477-01ae01f5aa47" d="M977.6119,393.395h-1.6809v-1.7937h1.6809v-2.6992h2.0575v2.6992h2.3214v1.7937h-2.3214v5.0397c0,.3778.0756.6454.2254.8027.1511.1573.4088.236.7742.236h1.5484v1.7931h-1.9634c-.9191,0-1.5893-.2137-2.0104-.6417s-.6317-1.0882-.6317-1.982v-5.2479Z"/>
            <path class="uuid-6d64523e-5b32-4352-a477-01ae01f5aa47" d="M991.9762,391.6013v9.6651h-1.7924l-.2267-1.227c-.7308.8937-1.7243,1.3403-2.9828,1.3403-1.1322,0-2.0513-.3524-2.7562-1.0573s-1.0566-1.837-1.0566-3.3978v-5.3234h2.0389v5.1159c0,.9439.1883,1.6611.5661,2.1517.3766.4912.9365.7364,1.6797.7364.7804,0,1.3898-.2861,1.8308-.8591.441-.5723.6602-1.3558.6602-2.3499v-4.7951h2.0389Z"/>
            <path class="uuid-6d64523e-5b32-4352-a477-01ae01f5aa47" d="M1003.3576,388.053v13.2135h-1.7739l-.2453-1.4536c-.768,1.0449-1.8184,1.567-3.1526,1.567-.8807,0-1.6673-.1982-2.3598-.5946s-1.2338-.9693-1.6227-1.7181c-.3902-.7482-.5859-1.6258-.5859-2.6329,0-.9817.1982-1.8469.5946-2.5957s.9402-1.3273,1.6326-1.7367c.6924-.4088,1.4728-.6132,2.3412-.6132.7048,0,1.3217.1288,1.8494.3865.5289.2583.9563.6138,1.2846,1.0665v-4.8886h2.0377ZM1000.5643,398.7748c.5153-.5915.7742-1.3589.7742-2.3028,0-.9693-.2589-1.7522-.7742-2.3505-.5165-.5977-1.1954-.8962-2.0389-.8962s-1.5224.2985-2.0389.8962c-.5153.5983-.773,1.3688-.773,2.3127,0,.9563.2577,1.7336.773,2.3313.5165.5977,1.1954.8962,2.0389.8962s1.5224-.2954,2.0389-.8869Z"/>
            <path class="uuid-6d64523e-5b32-4352-a477-01ae01f5aa47" d="M1005.5947,393.8385c.3964-.7488.9501-1.3273,1.6611-1.7367.711-.4088,1.5261-.6132,2.4452-.6132.9303,0,1.7516.1883,2.4626.5661.711.3772,1.2709.9123,1.6797,1.6048.41.6918.6206,1.5038.633,2.4347,0,.2521-.0186.5097-.057.7742h-7.2862v.1133c.0508.843.3146,1.51.7928,2.0005.4781.4912,1.1136.7364,1.9064.7364.6293,0,1.1582-.148,1.5856-.4435.4286-.2961.711-.7141.8498-1.2554h2.0389c-.1771.9817-.6516,1.7869-1.4258,2.4161-.773.6293-1.7392.9439-2.8974.9439-1.0071,0-1.8841-.2044-2.6335-.6138-.7482-.4088-1.3279-.9842-1.7367-1.7268-.4088-.7426-.6132-1.6048-.6132-2.5865,0-.9941.1982-1.8655.5946-2.6143ZM1012.4003,395.377c-.0879-.7048-.3679-1.2554-.8399-1.6518s-1.0665-.5946-1.7838-.5946c-.6677,0-1.2437.205-1.728.6138s-.7643.9532-.8399,1.6326h5.1915Z"/>
          </g>
        </g>
        <g>
          <path d="M180.9763,198.5021c6.2319,3.4814,11.1167,8.5347,14.6538,15.1587,3.5371,6.6274,5.3057,14.4858,5.3057,23.5806,0,8.6484-1.7686,16.2832-5.3057,22.9072-3.5371,6.627-8.4507,11.791-14.7378,15.4961-6.29,3.7061-13.3643,5.5586-21.2231,5.5586-6.9634,0-12.9141-1.2637-17.854-3.79-4.9424-2.5264-8.8164-5.9795-11.6216-10.3584v46.8242h-13.812v-119.5879h11.959l1.853,13.8115c7.1846-9.8799,17.0117-14.8223,29.4756-14.8223,7.9717,0,15.0752,1.7422,21.3071,5.2217ZM178.9553,260.0646c5.2212-5.8955,7.832-13.501,7.832-22.8232s-2.6108-16.9277-7.832-22.8223c-5.2217-5.8955-12.1011-8.8428-20.6333-8.8428-5.5034,0-10.4165,1.3208-14.7383,3.958-4.3237,2.6396-7.6636,6.3452-10.0215,11.1172-2.3584,4.7734-3.5371,10.1895-3.5371,16.2529,0,6.1777,1.1787,11.707,3.5371,16.5908,2.3579,4.8848,5.6978,8.6748,10.0215,11.3701,4.3218,2.6943,9.2349,4.042,14.7383,4.042,8.5322,0,15.4116-2.9473,20.6333-8.8428Z"/>
          <path d="M281.1096,206.2496c5.8369,3.3691,10.3848,8.0298,13.6431,13.9805,3.2554,5.9526,4.8843,12.8013,4.8843,20.5483,0,8.4219-1.8525,15.665-5.5581,21.7285s-8.7031,10.6689-14.9907,13.8115c-6.29,3.1445-13.1958,4.7158-20.7173,4.7158-8.5352,0-15.9463-1.6553-22.2334-4.9688-6.29-3.3105-11.1455-7.832-14.5693-13.5586-3.4268-5.7266-5.3638-12.0693-5.811-19.0332h14.1484c.6738,7.0742,3.5635,12.998,8.6743,17.7695,5.1084,4.7744,11.7061,7.1592,19.791,7.1592,4.7163,0,9.1216-1.0371,13.2222-3.1162,4.0977-2.0762,7.3818-5.1924,9.853-9.3486,2.4688-4.1523,3.7056-9.1504,3.7056-14.9902,0-8.085-2.4155-14.6543-7.2427-19.707-4.8291-5.0527-11.2847-7.5796-19.3696-7.5796-5.2793,0-10.501,1.124-15.6646,3.3687-5.166,2.2476-8.8716,6.459-11.1167,12.6328l-13.6431-.3369,3.874-67.0366h70.0688v12.9692h-57.0996l-2.6948,38.7397c3.4795-4.4897,7.832-7.748,13.0537-9.769s10.5273-3.0317,15.917-3.0317c7.4111,0,14.0352,1.6841,19.8755,5.0527Z"/>
          <path class="uuid-ee4ae926-34a7-43fc-91f3-b3fee17da55d" d="M361.2835,162.2887c13.6982,0,24.3096,2.6948,31.834,8.0845,7.5215,5.3901,11.2852,13.0273,11.2852,22.9072,0,7.3008-2.0215,13.1958-6.0645,17.6855-4.0415,4.4927-9.7686,7.4111-17.1797,8.7588,8.7588,1.124,15.5215,3.9316,20.2969,8.4219,4.7715,4.4922,7.1582,10.7793,7.1582,18.8643,0,10.332-3.9316,18.4434-11.791,24.3389-7.8608,5.8955-18.9775,8.8428-33.3496,8.8428h-46.9932v-117.9038h44.8037ZM341.7449,210.7975h20.2124c5.3896,0,9.6006-1.2896,12.6323-3.874,3.0317-2.5815,4.5479-6.0635,4.5479-10.4429s-1.5161-7.8584-4.5479-10.4429c-3.0317-2.5815-7.2427-3.874-12.6323-3.874h-20.2124v28.6338ZM341.7449,260.1485h21.8965c6.0635,0,10.751-1.2891,14.0645-3.874,3.3105-2.5811,4.9688-6.1738,4.9688-10.7793,0-4.8271-1.6846-8.5615-5.0532-11.2012-3.3687-2.6367-8.0293-3.958-13.98-3.958h-21.8965v29.8125Z"/>
          <path class="uuid-ee4ae926-34a7-43fc-91f3-b3fee17da55d" d="M476.1555,193.6173v21.5596h-9.4326c-6.7373,0-11.6797,2.021-14.8223,6.0635-3.1455,4.043-4.7158,9.5459-4.7158,16.5068v42.4453h-23.75v-86.5752h21.5596l2.1904,12.9692c2.5811-4.2661,5.7812-7.4951,9.6006-9.6846,3.8154-2.1899,8.9268-3.2847,15.3271-3.2847h4.043Z"/>
          <path class="uuid-ee4ae926-34a7-43fc-91f3-b3fee17da55d" d="M569.467,260.1485v20.0439h-12.1279c-10.8926,0-16.2275-4.7158-16.001-14.1484-3.1455,4.9424-7.0186,8.7031-11.6221,11.2852-4.6055,2.584-10.1641,3.874-16.6748,3.874-9.6592,0-17.4326-2.2158-23.3281-6.6533-5.8955-4.4346-8.8428-10.6953-8.8428-18.7803,0-9.2061,3.3945-16.3096,10.1904-21.3066,6.792-4.9951,16.6455-7.4961,29.5596-7.4961h17.1807v-4.2109c0-3.9287-1.4609-7.0449-4.3789-9.3477-2.9219-2.3003-6.8506-3.4531-11.791-3.4531-4.3789,0-7.9746.9556-10.7793,2.8638-2.8086,1.9106-4.4932,4.4922-5.0537,7.7485h-22.9062c.7842-8.8696,4.7158-15.7495,11.79-20.6338,7.0742-4.8848,16.4482-7.3271,28.1289-7.3271,12.2373,0,21.6982,2.6953,28.3809,8.085,6.6797,5.3901,10.0215,13.1958,10.0215,23.4121v30.4873c0,2.1338.4473,3.5947,1.3477,4.3789.8975.7871,2.2998,1.1787,4.2109,1.1787h2.6953ZM537.801,242.7999h-17.3486c-4.9424,0-8.7881.9844-11.5381,2.9482-2.7529,1.9658-4.126,4.7451-4.126,8.3369,0,3.0322,1.1494,5.4482,3.4521,7.2432,2.3008,1.7969,5.416,2.6943,9.3486,2.6943,6.1738,0,11.0586-1.7686,14.6533-5.3057,3.5928-3.5371,5.4453-8.2793,5.5586-14.2324v-1.6846Z"/>
          <path class="uuid-ee4ae926-34a7-43fc-91f3-b3fee17da55d" d="M653.345,202.0392c6.5107,6.29,9.7686,16.6748,9.7686,31.1602v46.9932h-23.749v-45.6455c0-14.9331-5.8398-22.4019-17.5176-22.4019-6.1768,0-10.9482,2.0791-14.3164,6.2319-3.3691,4.1553-5.0527,9.9951-5.0527,17.5176v44.2979h-23.75v-86.5752h20.7178l2.1895,10.7798c3.0322-3.7056,6.6797-6.5952,10.9482-8.6743,4.2666-2.0767,9.543-3.1162,15.833-3.1162,10.1064,0,18.415,3.145,24.9287,9.4326Z"/>
          <path class="uuid-ee4ae926-34a7-43fc-91f3-b3fee17da55d" d="M764.679,162.2887v117.9038h-20.7168l-2.3584-11.959c-6.627,8.6484-15.6094,12.9697-26.9492,12.9697-7.6377,0-14.4854-1.8242-20.5488-5.4746-6.0645-3.6475-10.8096-8.8428-14.2334-15.5801-3.4258-6.7373-5.1367-14.54-5.1367-23.4121,0-8.7588,1.7109-16.4775,5.1367-23.1597,3.4238-6.6797,8.1953-11.8457,14.3174-15.4961,6.1191-3.6475,12.9961-5.4741,20.6328-5.4741,11.2275,0,19.9307,3.9321,26.1074,11.7905v-42.1084h23.749ZM735.5403,255.0118c3.8164-4.5479,5.7266-10.5273,5.7266-17.9385,0-7.5215-1.9102-13.585-5.7266-18.1909-3.8184-4.603-8.9268-6.9058-15.3271-6.9058s-11.5381,2.3027-15.4121,6.9058c-3.874,4.606-5.8115,10.6118-5.8115,18.022s1.9375,13.4199,5.8115,18.0225c3.874,4.6064,9.0107,6.9062,15.4121,6.9062s11.5088-2.2734,15.3271-6.8213Z"/>
          <path class="uuid-ee4ae926-34a7-43fc-91f3-b3fee17da55d" d="M927.8307,260.1485v20.0439h-12.1279c-10.8926,0-16.2275-4.7158-16.001-14.1484-3.1455,4.9424-7.0186,8.7031-11.6221,11.2852-4.6055,2.584-10.1641,3.874-16.6748,3.874-9.6592,0-17.4326-2.2158-23.3281-6.6533-5.8955-4.4346-8.8428-10.6953-8.8428-18.7803,0-9.2061,3.3945-16.3096,10.1904-21.3066,6.792-4.9951,16.6455-7.4961,29.5596-7.4961h17.1807v-4.2109c0-3.9287-1.4609-7.0449-4.3789-9.3477-2.9219-2.3003-6.8506-3.4531-11.791-3.4531-4.3789,0-7.9746.9556-10.7793,2.8638-2.8086,1.9106-4.4932,4.4922-5.0537,7.7485h-22.9062c.7842-8.8696,4.7158-15.7495,11.79-20.6338,7.0742-4.8848,16.4482-7.3271,28.1289-7.3271,12.2373,0,21.6982,2.6953,28.3809,8.085,6.6797,5.3901,10.0215,13.1958,10.0215,23.4121v30.4873c0,2.1338.4473,3.5947,1.3477,4.3789.8975.7871,2.2998,1.1787,4.2109,1.1787h2.6953ZM896.1646,242.7999h-17.3486c-4.9424,0-8.7881.9844-11.5381,2.9482-2.7529,1.9658-4.126,4.7451-4.126,8.3369,0,3.0322,1.1494,5.4482,3.4521,7.2432,2.3008,1.7969,5.416,2.6943,9.3486,2.6943,6.1738,0,11.0586-1.7686,14.6533-5.3057,3.5928-3.5371,5.4453-8.2793,5.5586-14.2324v-1.6846Z"/>
          <path class="uuid-ee4ae926-34a7-43fc-91f3-b3fee17da55d" d="M1007.6656,197.9122c6.0635,3.5371,10.8066,8.6479,14.2324,15.3276,3.4238,6.6821,5.1377,14.5142,5.1377,23.4966,0,8.7588-1.7139,16.5068-5.1377,23.2441-3.4258,6.7373-8.1689,11.959-14.2324,15.6641-6.0635,3.7061-12.9141,5.5586-20.5488,5.5586-6.0635,0-11.3428-1.1504-15.833-3.4531-4.4922-2.2998-8.1982-5.416-11.1162-9.3477l-2.3584,11.79h-20.7178v-117.9038h23.75v42.2769c6.624-7.9717,15.3271-11.959,26.1064-11.959,7.748,0,14.6543,1.7686,20.7178,5.3057ZM997.0543,254.9269c3.9297-4.6025,5.8955-10.6113,5.8955-18.0225s-1.9658-13.416-5.8955-18.022c-3.9316-4.603-9.0957-6.9058-15.4961-6.9058s-11.5117,2.2739-15.3271,6.8218c-3.8193,4.5474-5.7266,10.5269-5.7266,17.938,0,7.5244,1.9072,13.5879,5.7266,18.1904,3.8154,4.6064,8.9268,6.9062,15.3271,6.9062s11.5645-2.2998,15.4961-6.9062Z"/>
          <g>
            <path class="uuid-2deac7be-49d7-4765-8d29-9f00d78730f6" d="M858.9565,99.4235c0-13.4389-10.8943-24.3333-24.3333-24.3333-2.824,0-5.5332.4865-8.0552,1.3711-2.8569-10.262-12.2644-17.7948-23.4373-17.7948-11.7595,0-21.5706,8.3414-23.8391,19.4302-1.875-.4631-3.8342-.7132-5.8523-.7132-13.439,0-24.3333,10.8944-24.3333,24.3334,0,6.7487,2.7485,12.8543,7.1855,17.2622-.0854.8299-.1301,1.6719-.1301,2.5244,0,13.4389,10.8943,24.3333,24.3333,24.3333,2.4702,0,4.853-.3709,7.0994-1.0552v50.0317h-3.6692v63.5667c0,10.9248,8.8877,19.8125,19.8125,19.8125s19.8125-8.8877,19.8125-19.8125v-63.5667h-3.6692v-50.1881c2.3872.7825,4.9343,1.2115,7.5833,1.2115,13.439,0,24.3335-10.8944,24.3335-24.3333,0-1.5205-.1465-3.006-.4133-4.4493,4.6616-4.433,7.5723-10.6899,7.5723-17.6306ZM847.4775,112.9458l-2.2268,2.1174.5588,3.0215c.2114,1.1445.3188,2.2947.3188,3.4187,0,10.2914-8.3728,18.664-18.6643,18.664-1.9785,0-3.9358-.3127-5.8174-.9294l-7.4351-2.4373v58.0126h-20.948v-57.6852l-7.3215,2.2302c-1.7625.5369-3.5952.8091-5.4473.8091-10.2913,0-18.6641-8.3726-18.6641-18.664,0-.6434.0339-1.2974.1003-1.9437l.2776-2.694-1.9214-1.9088c-3.5544-3.531-5.5117-8.2332-5.5117-13.2402,0-10.2914,8.3726-18.6641,18.6638-18.6641,1.5098,0,3.0212.1843,4.4929.5477l5.7305,1.4155,1.1831-5.7831c1.7661-8.632,9.4558-14.8972,18.2849-14.8972,8.3469,0,15.7388,5.6114,17.9756,13.646l1.624,5.8335,5.7141-2.0043c1.9893-.6978,4.0681-1.0515,6.1787-1.0515,10.2913,0,18.6641,8.3726,18.6641,18.664,0,5.1573-2.0635,9.9596-5.8098,13.5223Z"/>
            <path class="uuid-ee4ae926-34a7-43fc-91f3-b3fee17da55d" d="M819.8808,167.958v90.422c-.0001,8.9014-7.2421,16.1432-16.1434,16.1432-.197,0-.3958-.0036-.5942-.0106-8.5737-.3049-15.5491-7.7765-15.5491-16.6554v-89.8992h32.2868ZM781.9249,162.2887v95.5685c0,11.8274,9.197,21.9008,21.0168,22.3211.2659.0095.532.0142.7957.0142,12.0474,0,21.8125-9.7654,21.8125-21.8125v-96.0913h-43.625Z"/>
            <rect class="uuid-ee4ae926-34a7-43fc-91f3-b3fee17da55d" x="784.8619" y="191.9789" width="18.876" height="5.6689"/>
            <rect class="uuid-ee4ae926-34a7-43fc-91f3-b3fee17da55d" x="784.8619" y="207.8705" width="18.876" height="5.6689"/>
            <rect class="uuid-ee4ae926-34a7-43fc-91f3-b3fee17da55d" x="784.8619" y="176.0873" width="18.876" height="5.6689"/>
            <rect class="uuid-ee4ae926-34a7-43fc-91f3-b3fee17da55d" x="784.8619" y="223.7621" width="18.876" height="5.6689"/>
            <rect class="uuid-ee4ae926-34a7-43fc-91f3-b3fee17da55d" x="784.8619" y="239.6537" width="18.876" height="5.6689"/>
            <rect class="uuid-ee4ae926-34a7-43fc-91f3-b3fee17da55d" x="784.8619" y="255.5458" width="18.876" height="5.6689"/>
          </g>
        </g>
      </g>
    </g>
  </g>
</svg>