<?xml version="1.0" encoding="UTF-8"?>
<svg id="Layer_2" data-name="Layer 2" xmlns="http://www.w3.org/2000/svg" viewBox="0 0 958 418.76">
  <defs>
    <style>
      .cls-1 {
        fill: #fff;
      }

      .cls-2 {
        fill: #7685f7;
      }

      .cls-3 {
        fill: #bffb50;
      }
    </style>
  </defs>
  <g id="Layer_1-2" data-name="Layer 1">
    <g>
      <rect class="cls-1" width="958" height="418.76"/>
      <g>
        <path d="M116.24,181.3c6.23,3.48,11.12,8.54,14.65,15.16,3.54,6.63,5.31,14.49,5.31,23.58s-1.77,16.28-5.31,22.91c-3.54,6.63-8.45,11.79-14.74,15.5-6.29,3.71-13.36,5.56-21.22,5.56-6.96,0-12.91-1.26-17.85-3.79-4.94-2.53-8.82-5.98-11.62-10.36v46.82h-13.81v-119.59h11.96l1.85,13.81c7.18-9.88,17.01-14.82,29.48-14.82,7.97,0,15.08,1.74,21.31,5.22ZM114.22,242.86c5.22-5.9,7.83-13.5,7.83-22.82s-2.61-16.93-7.83-22.82c-5.22-5.9-12.1-8.84-20.63-8.84-5.5,0-10.42,1.32-14.74,3.96-4.32,2.64-7.66,6.35-10.02,11.12-2.36,4.77-3.54,10.19-3.54,16.25s1.18,11.71,3.54,16.59c2.36,4.88,5.7,8.67,10.02,11.37,4.32,2.69,9.23,4.04,14.74,4.04,8.53,0,15.41-2.95,20.63-8.84Z"/>
        <path d="M216.37,189.05c5.84,3.37,10.38,8.03,13.64,13.98,3.26,5.95,4.88,12.8,4.88,20.55,0,8.42-1.85,15.67-5.56,21.73s-8.7,10.67-14.99,13.81c-6.29,3.14-13.2,4.72-20.72,4.72-8.54,0-15.95-1.66-22.23-4.97-6.29-3.31-11.15-7.83-14.57-13.56-3.43-5.73-5.36-12.07-5.81-19.03h14.15c.67,7.07,3.56,13,8.67,17.77,5.11,4.77,11.71,7.16,19.79,7.16,4.72,0,9.12-1.04,13.22-3.12,4.1-2.08,7.38-5.19,9.85-9.35,2.47-4.15,3.71-9.15,3.71-14.99,0-8.08-2.42-14.65-7.24-19.71-4.83-5.05-11.28-7.58-19.37-7.58-5.28,0-10.5,1.12-15.66,3.37-5.17,2.25-8.87,6.46-11.12,12.63l-13.64-.34,3.87-67.04h70.07v12.97h-57.1l-2.69,38.74c3.48-4.49,7.83-7.75,13.05-9.77,5.22-2.02,10.53-3.03,15.92-3.03,7.41,0,14.04,1.68,19.88,5.05Z"/>
        <path class="cls-2" d="M254.02,172.46c4.66-9.04,11.34-16.03,20.04-20.97,8.7-4.94,18.95-7.41,30.74-7.41,9.21,0,17.46,1.8,24.76,5.39,7.3,3.6,13.19,8.65,17.69,15.16,4.49,6.51,7.18,14.04,8.08,22.57h-25.27c-1.46-6.74-4.52-12.04-9.18-15.92-4.66-3.87-10.47-5.81-17.43-5.81-9.43,0-16.9,3.54-22.4,10.61-5.5,7.07-8.25,16.4-8.25,27.96s2.75,20.75,8.25,27.88c5.5,7.13,12.97,10.7,22.4,10.7,6.96,0,12.77-1.94,17.43-5.81,4.66-3.87,7.72-9.18,9.18-15.92h25.27c-.9,8.54-3.6,16.06-8.08,22.57-4.49,6.51-10.39,11.57-17.69,15.16-7.3,3.59-15.55,5.39-24.76,5.39-11.79,0-22.04-2.47-30.74-7.41-8.7-4.94-15.39-11.93-20.04-20.97-4.66-9.04-6.99-19.57-6.99-31.58s2.33-22.54,6.99-31.58Z"/>
        <path class="cls-2" d="M453.36,242.95v20.04h-12.13c-10.89,0-16.23-4.72-16-14.15-3.15,4.94-7.02,8.7-11.62,11.29-4.61,2.58-10.16,3.87-16.67,3.87-9.66,0-17.43-2.22-23.33-6.65-5.9-4.43-8.84-10.7-8.84-18.78,0-9.21,3.39-16.31,10.19-21.31,6.79-5,16.65-7.5,29.56-7.5h17.18v-4.21c0-3.93-1.46-7.04-4.38-9.35-2.92-2.3-6.85-3.45-11.79-3.45-4.38,0-7.97.96-10.78,2.86-2.81,1.91-4.49,4.49-5.05,7.75h-22.91c.78-8.87,4.72-15.75,11.79-20.63s16.45-7.33,28.13-7.33,21.7,2.69,28.38,8.08c6.68,5.39,10.02,13.2,10.02,23.41v30.49c0,2.13.45,3.59,1.35,4.38.9.79,2.3,1.18,4.21,1.18h2.7ZM421.69,225.6h-17.35c-4.94,0-8.79.98-11.54,2.95-2.75,1.97-4.13,4.75-4.13,8.34,0,3.03,1.15,5.45,3.45,7.24,2.3,1.8,5.42,2.69,9.35,2.69,6.17,0,11.06-1.77,14.65-5.31,3.59-3.54,5.45-8.28,5.56-14.23v-1.68Z"/>
        <path class="cls-2" d="M468.18,196.46h-14.32v-20.04h14.32v-24.25h23.75v24.25h19.71v20.04h-19.71v37.9c0,3.03.65,5.22,1.94,6.57,1.29,1.35,3.45,2.02,6.48,2.02h12.3v20.04h-19.71c-16.51,0-24.76-8.25-24.76-24.76v-41.77Z"/>
        <path class="cls-2" d="M607.3,242.95v20.04h-12.13c-10.89,0-16.23-4.72-16-14.15-3.15,4.94-7.02,8.7-11.62,11.29-4.61,2.58-10.16,3.87-16.67,3.87-9.66,0-17.43-2.22-23.33-6.65-5.9-4.43-8.84-10.7-8.84-18.78,0-9.21,3.39-16.31,10.19-21.31,6.79-5,16.65-7.5,29.56-7.5h17.18v-4.21c0-3.93-1.46-7.04-4.38-9.35-2.92-2.3-6.85-3.45-11.79-3.45-4.38,0-7.97.96-10.78,2.86-2.81,1.91-4.49,4.49-5.05,7.75h-22.91c.78-8.87,4.72-15.75,11.79-20.63s16.45-7.33,28.13-7.33,21.7,2.69,28.38,8.08c6.68,5.39,10.02,13.2,10.02,23.41v30.49c0,2.13.45,3.59,1.35,4.38.9.79,2.3,1.18,4.21,1.18h2.7ZM575.64,225.6h-17.35c-4.94,0-8.79.98-11.54,2.95-2.75,1.97-4.13,4.75-4.13,8.34,0,3.03,1.15,5.45,3.45,7.24,2.3,1.8,5.42,2.69,9.35,2.69,6.17,0,11.06-1.77,14.65-5.31,3.59-3.54,5.45-8.28,5.56-14.23v-1.68Z"/>
        <path class="cls-2" d="M692.44,176.42l21.05,62.15,20.55-62.15h25.43l-38.4,98.87c-2.02,5.28-3.93,9.4-5.73,12.38-1.8,2.97-4.07,5.22-6.82,6.74-2.75,1.52-6.32,2.27-10.7,2.27h-23.08v-20.04h13.14c3.03,0,5.22-.51,6.57-1.52s2.64-2.98,3.87-5.89l2.19-5.73-33.35-87.08h25.26Z"/>
        <path class="cls-2" d="M784.75,234.19c.34,3.82,2.19,6.91,5.56,9.26,3.37,2.36,7.69,3.54,12.97,3.54s9.04-.81,11.96-2.44c2.92-1.63,4.38-3.96,4.38-6.99,0-2.25-.67-3.93-2.02-5.05-1.35-1.12-3.26-1.94-5.73-2.44-2.47-.51-6.51-1.09-12.13-1.77-7.64-1.01-13.98-2.3-19.03-3.87-5.05-1.57-9.1-4.04-12.13-7.41-3.03-3.37-4.55-7.86-4.55-13.47s1.54-10.58,4.63-14.91c3.09-4.32,7.44-7.66,13.05-10.02,5.61-2.36,12.07-3.54,19.37-3.54,11.79.11,21.31,2.64,28.55,7.58,7.24,4.94,11.14,11.79,11.71,20.55h-22.57c-.34-3.26-2.05-5.92-5.14-8-3.09-2.08-7.05-3.12-11.88-3.12-4.49,0-8.11.84-10.86,2.53-2.75,1.68-4.13,3.93-4.13,6.74,0,2.02.73,3.54,2.19,4.55,1.46,1.01,3.37,1.74,5.73,2.19,2.36.45,6.29.96,11.79,1.52,11.68,1.35,20.63,3.85,26.87,7.5,6.23,3.65,9.35,9.91,9.35,18.78,0,5.62-1.66,10.56-4.97,14.82-3.31,4.27-7.92,7.55-13.81,9.85-5.9,2.3-12.72,3.45-20.46,3.45-12.02,0-21.79-2.67-29.31-8-7.52-5.33-11.51-12.6-11.96-21.81h22.57Z"/>
        <path class="cls-2" d="M861.89,196.46h-14.32v-20.04h14.32v-24.25h23.75v24.25h19.71v20.04h-19.71v37.9c0,3.03.65,5.22,1.94,6.57,1.29,1.35,3.45,2.02,6.48,2.02h12.3v20.04h-19.71c-16.51,0-24.76-8.25-24.76-24.76v-41.77Z"/>
        <g>
          <path class="cls-3" d="M693.6,83.24c0-13.44-10.89-24.33-24.33-24.33-2.82,0-5.53.49-8.06,1.37-2.86-10.26-12.26-17.79-23.44-17.79-11.76,0-21.57,8.34-23.84,19.43-1.88-.46-3.83-.71-5.85-.71-13.44,0-24.33,10.89-24.33,24.33,0,6.75,2.75,12.85,7.19,17.26-.09.83-.13,1.67-.13,2.52,0,13.44,10.89,24.33,24.33,24.33,2.47,0,4.85-.37,7.1-1.06v50.03h-3.67v63.57c0,10.92,8.89,19.81,19.81,19.81s19.81-8.89,19.81-19.81v-63.57h-3.67v-50.19c2.39.78,4.93,1.21,7.58,1.21,13.44,0,24.33-10.89,24.33-24.33,0-1.52-.15-3.01-.41-4.45,4.66-4.43,7.57-10.69,7.57-17.63ZM682.12,96.76l-2.23,2.12.56,3.02c.21,1.14.32,2.29.32,3.42,0,10.29-8.37,18.66-18.66,18.66-1.98,0-3.94-.31-5.82-.93l-7.44-2.44v58.01h-20.95v-57.69l-7.32,2.23c-1.76.54-3.6.81-5.45.81-10.29,0-18.66-8.37-18.66-18.66,0-.64.03-1.3.1-1.94l.28-2.69-1.92-1.91c-3.55-3.53-5.51-8.23-5.51-13.24,0-10.29,8.37-18.66,18.66-18.66,1.51,0,3.02.18,4.49.55l5.73,1.42,1.18-5.78c1.77-8.63,9.46-14.9,18.28-14.9,8.35,0,15.74,5.61,17.98,13.65l1.62,5.83,5.71-2c1.99-.7,4.07-1.05,6.18-1.05,10.29,0,18.66,8.37,18.66,18.66,0,5.16-2.06,9.96-5.81,13.52Z"/>
          <path class="cls-2" d="M616.57,146.1v95.57c0,11.83,9.2,21.9,21.02,22.32.27,0,.53.01.8.01,12.05,0,21.81-9.77,21.81-21.81v-96.09h-43.62ZM654.52,242.19c0,8.9-7.24,16.14-16.14,16.14-.2,0-.4,0-.59-.01-7.47-.27-13.72-5.97-15.21-13.3h15.8v-5.67h-16.14v-10.22h16.14v-5.67h-16.14v-10.22h16.14v-5.67h-16.14v-10.22h16.14v-5.67h-16.14v-10.22h16.14v-5.67h-16.14v-10.22h16.14v-5.67h-16.14v-8.13h32.29v90.42Z"/>
        </g>
      </g>
      <g>
        <rect class="cls-2" x="746.99" y="282.56" width="159.31" height="28.66"/>
        <g>
          <path class="cls-1" d="M758.68,291.29c.19.18.28.41.28.69s-.09.51-.28.69-.42.28-.7.28-.51-.09-.7-.28-.28-.41-.28-.69.09-.51.28-.69c.19-.18.42-.27.7-.27s.51.09.7.27ZM757.17,294.07h1.61v7.62h-1.61v-7.62Z"/>
          <path class="cls-1" d="M766.58,294.81c.57.56.86,1.45.86,2.68v4.2h-1.62v-4.11c0-.72-.15-1.27-.46-1.65-.31-.38-.76-.57-1.35-.57-.63,0-1.13.22-1.5.66-.36.44-.54,1.05-.54,1.82v3.84h-1.61v-7.62h1.4l.18,1c.58-.72,1.39-1.09,2.44-1.09.9,0,1.64.28,2.21.83Z"/>
          <path class="cls-1" d="M770.4,291.29c.19.18.28.41.28.69s-.09.51-.28.69-.42.28-.7.28-.51-.09-.7-.28-.28-.41-.28-.69.09-.51.28-.69c.19-.18.42-.27.7-.27s.51.09.7.27ZM768.9,294.07h1.61v7.62h-1.61v-7.62Z"/>
          <path class="cls-1" d="M772.57,295.48h-1.33v-1.41h1.33v-2.13h1.62v2.13h1.83v1.41h-1.83v3.97c0,.3.06.51.18.63.12.12.32.19.61.19h1.22v1.41h-1.55c-.72,0-1.25-.17-1.58-.51s-.5-.86-.5-1.56v-4.14Z"/>
          <path class="cls-1" d="M778.57,291.29c.19.18.28.41.28.69s-.09.51-.28.69-.42.28-.7.28-.51-.09-.7-.28-.28-.41-.28-.69.09-.51.28-.69c.19-.18.42-.27.7-.27s.51.09.7.27ZM777.07,294.07h1.61v7.62h-1.61v-7.62Z"/>
          <path class="cls-1" d="M787.55,300.29v1.4h-.85c-.5,0-.85-.1-1.07-.31-.22-.21-.33-.51-.33-.91-.58.87-1.41,1.31-2.52,1.31-.85,0-1.54-.2-2.05-.6s-.77-.94-.77-1.64c0-.78.28-1.39.83-1.81.56-.42,1.36-.63,2.43-.63h1.92v-.46c0-.43-.15-.76-.45-1s-.71-.36-1.24-.36c-.47,0-.85.1-1.15.31-.3.2-.48.47-.54.81h-1.58c.08-.76.42-1.36,1.01-1.78.59-.42,1.37-.63,2.34-.63,1.02,0,1.81.24,2.37.71.56.48.83,1.16.83,2.05v3.01c0,.36.17.54.51.54h.31ZM785.13,298.29h-1.99c-.5,0-.88.1-1.15.29-.27.19-.4.48-.4.86,0,.33.13.59.38.79.25.2.6.3,1.03.3.66,0,1.18-.18,1.55-.54.37-.36.56-.83.57-1.43v-.27Z"/>
          <path class="cls-1" d="M788.91,295.48h-1.33v-1.41h1.33v-2.13h1.62v2.13h1.83v1.41h-1.83v3.97c0,.3.06.51.18.63.12.12.32.19.61.19h1.22v1.41h-1.55c-.72,0-1.25-.17-1.58-.51s-.5-.86-.5-1.56v-4.14Z"/>
          <path class="cls-1" d="M793.43,295.83c.31-.59.75-1.05,1.31-1.37.56-.32,1.2-.48,1.93-.48s1.38.15,1.94.45c.56.3,1,.72,1.32,1.27.32.55.49,1.19.5,1.92,0,.2-.01.4-.04.61h-5.74v.09c.04.66.25,1.19.62,1.58.38.39.88.58,1.5.58.5,0,.91-.12,1.25-.35.34-.23.56-.56.67-.99h1.61c-.14.77-.51,1.41-1.12,1.9-.61.5-1.37.74-2.28.74-.79,0-1.49-.16-2.08-.48-.59-.32-1.05-.78-1.37-1.36s-.48-1.27-.48-2.04.16-1.47.47-2.06ZM798.8,297.04c-.07-.56-.29-.99-.66-1.3s-.84-.47-1.41-.47c-.53,0-.98.16-1.36.48s-.6.75-.66,1.29h4.09Z"/>
          <path class="cls-1" d="M809.12,291.27v10.42h-1.4l-.19-1.15c-.61.82-1.43,1.24-2.49,1.24-.69,0-1.31-.16-1.86-.47s-.97-.76-1.28-1.35c-.31-.59-.46-1.28-.46-2.08s.16-1.46.47-2.05.74-1.05,1.29-1.37c.55-.32,1.16-.48,1.85-.48.56,0,1.04.1,1.46.3.42.2.75.48,1.01.84v-3.85h1.61ZM806.92,299.72c.41-.47.61-1.07.61-1.82s-.2-1.38-.61-1.85c-.41-.47-.94-.71-1.61-.71s-1.2.24-1.61.71c-.41.47-.61,1.08-.61,1.82s.2,1.37.61,1.84c.41.47.94.71,1.61.71s1.2-.23,1.61-.7Z"/>
          <path class="cls-1" d="M820.45,294.45c.55.31.97.76,1.28,1.35s.46,1.28.46,2.08-.15,1.44-.46,2.03-.73,1.05-1.28,1.38c-.55.33-1.17.49-1.86.49-.57,0-1.06-.11-1.47-.32-.42-.21-.75-.5-1.01-.87l-.19,1.1h-1.4v-10.42h1.61v3.93c.61-.81,1.43-1.22,2.47-1.22.69,0,1.31.16,1.86.47ZM819.93,299.72c.41-.47.62-1.08.62-1.84s-.21-1.35-.62-1.82c-.41-.47-.95-.71-1.61-.71s-1.2.23-1.61.7c-.41.47-.61,1.07-.61,1.82s.2,1.37.61,1.85c.41.48.94.71,1.61.71s1.2-.24,1.61-.71Z"/>
          <path class="cls-1" d="M824.14,294.07l2.13,5.88,2.07-5.88h1.71l-3.45,8.81c-.18.46-.34.81-.49,1.05-.15.24-.33.43-.55.55-.22.12-.51.19-.88.19h-1.73v-1.41h1.13c.31,0,.52-.05.64-.14.12-.09.24-.31.37-.63l.31-.73-2.98-7.68h1.71Z"/>
          <path class="cls-1" d="M834.84,291.27h2.22l3.33,8.2,3.27-8.2h2.17v10.42h-1.65v-7.66l-3.12,7.66h-1.44l-3.12-7.66v7.66h-1.65v-10.42Z"/>
          <path class="cls-1" d="M854.41,294.07v7.62h-1.41l-.18-.97c-.58.7-1.36,1.06-2.35,1.06-.89,0-1.62-.28-2.17-.83s-.83-1.45-.83-2.68v-4.2h1.61v4.03c0,.74.15,1.31.45,1.7.3.39.74.58,1.32.58.62,0,1.1-.23,1.44-.68.35-.45.52-1.07.52-1.85v-3.78h1.61Z"/>
          <path class="cls-1" d="M855.98,291.27h1.61v10.42h-1.61v-10.42Z"/>
          <path class="cls-1" d="M859.17,291.94h1.61v2.13h1.85v1.41h-1.85v3.97c0,.3.06.51.18.63s.32.19.61.19h1.22v1.41h-1.55c-.72,0-1.25-.17-1.58-.51-.33-.34-.49-.86-.49-1.56v-7.68Z"/>
          <path class="cls-1" d="M865.17,291.29c.19.18.28.41.28.69s-.09.51-.28.69-.42.28-.7.28-.51-.09-.7-.28-.28-.41-.28-.69.09-.51.28-.69c.19-.18.42-.27.7-.27s.51.09.7.27ZM863.66,294.07h1.61v7.62h-1.61v-7.62Z"/>
          <path class="cls-1" d="M867.34,295.48h-1.33v-1.41h1.33v-2.13h1.62v2.13h1.83v1.41h-1.83v3.97c0,.3.06.51.18.63.12.12.32.19.61.19h1.22v1.41h-1.55c-.72,0-1.25-.17-1.58-.51s-.5-.86-.5-1.56v-4.14Z"/>
          <path class="cls-1" d="M878.66,294.07v7.62h-1.41l-.18-.97c-.58.7-1.36,1.06-2.35,1.06-.89,0-1.62-.28-2.17-.83s-.83-1.45-.83-2.68v-4.2h1.61v4.03c0,.74.15,1.31.45,1.7.3.39.74.58,1.32.58.62,0,1.1-.23,1.44-.68.35-.45.52-1.07.52-1.85v-3.78h1.61Z"/>
          <path class="cls-1" d="M887.64,291.27v10.42h-1.4l-.19-1.15c-.61.82-1.43,1.24-2.49,1.24-.69,0-1.31-.16-1.86-.47s-.97-.76-1.28-1.35c-.31-.59-.46-1.28-.46-2.08s.16-1.46.47-2.05.74-1.05,1.29-1.37c.55-.32,1.16-.48,1.85-.48.56,0,1.04.1,1.46.3.42.2.75.48,1.01.84v-3.85h1.61ZM885.43,299.72c.41-.47.61-1.07.61-1.82s-.2-1.38-.61-1.85c-.41-.47-.94-.71-1.61-.71s-1.2.24-1.61.71c-.41.47-.61,1.08-.61,1.82s.2,1.37.61,1.84c.41.47.94.71,1.61.71s1.2-.23,1.61-.7Z"/>
          <path class="cls-1" d="M889.4,295.83c.31-.59.75-1.05,1.31-1.37.56-.32,1.2-.48,1.93-.48s1.38.15,1.94.45c.56.3,1,.72,1.32,1.27.32.55.49,1.19.5,1.92,0,.2-.01.4-.04.61h-5.74v.09c.04.66.25,1.19.62,1.58.38.39.88.58,1.5.58.5,0,.91-.12,1.25-.35.34-.23.56-.56.67-.99h1.61c-.14.77-.51,1.41-1.12,1.9-.61.5-1.37.74-2.28.74-.79,0-1.49-.16-2.08-.48-.59-.32-1.05-.78-1.37-1.36s-.48-1.27-.48-2.04.16-1.47.47-2.06ZM894.77,297.04c-.07-.56-.29-.99-.66-1.3s-.84-.47-1.41-.47c-.53,0-.98.16-1.36.48s-.6.75-.66,1.29h4.09Z"/>
        </g>
      </g>
    </g>
  </g>
</svg>