<?xml version="1.0" encoding="UTF-8"?>
<svg
	id="Layer_2"
	data-name="Layer 2"
	xmlns="http://www.w3.org/2000/svg"
	viewBox="0 0 32 32"
>
	<defs>
		<style>
			.cls-1 {
				fill: none;
				stroke: #7685f7;
				stroke-miterlimit: 10;
				stroke-width: 2px;
			}
		</style>
	</defs>
	<g id="Layer_1_copy_2" data-name="Layer 1 copy 2">
		<g>
			<path
				class="cls-1"
				d="M16,31c8.27,0,15-6.73,15-15S24.27,1,16,1,1,7.73,1,16c0,8.27,6.73,15,15,15Z"
			/>
			<path
				class="cls-1"
				d="M24.33,16c0-.72-.1-1.41-.27-2.07l1.61-1.09c-.44-1.36-1.17-2.59-2.11-3.63l-1.74.85c-.99-.97-2.22-1.69-3.59-2.07l-.14-1.95c-.68-.14-1.38-.22-2.1-.22s-1.42.08-2.1.22l-.14,1.95c-1.37.38-2.6,1.1-3.59,2.07l-1.74-.85c-.94,1.04-1.66,2.27-2.11,3.63l1.61,1.09c-.17.66-.27,1.35-.27,2.07s.1,1.41.27,2.07l-1.61,1.09c.44,1.36,1.17,2.59,2.11,3.63l1.74-.85c.99.97,2.22,1.69,3.59,2.07l.14,1.95c.68.14,1.38.22,2.1.22s1.42-.08,2.1-.22l.14-1.95c1.37-.38,2.6-1.1,3.59-2.07l1.74.85c.94-1.04,1.66-2.27,2.11-3.63l-1.61-1.09c.17-.66.27-1.35.27-2.07ZM16,19.38c-1.87,0-3.38-1.51-3.38-3.38s1.51-3.38,3.38-3.38,3.38,1.51,3.38,3.38-1.51,3.38-3.38,3.38Z"
			/>
		</g>
	</g>
</svg>
