<?xml version="1.0" encoding="UTF-8"?>
<svg id="uuid-535baa10-d524-4208-a2a3-bc603cc4af3b" data-name="Layer_2" xmlns="http://www.w3.org/2000/svg" width="910.6541" height="255.2125" viewBox="0 0 910.6541 255.2125">
  <defs>
    <style>
      .uuid-75804d5e-37bf-4b9f-964c-f39ce1584190 {
        fill: #7685f7;
      }

      .uuid-39c80408-b5f2-49f4-a9d5-787c4411b2ce {
        fill: #bffb50;
      }
    </style>
  </defs>
  <g id="uuid-c066f81b-8cfb-4776-ae2c-c243b90539d5" data-name="Layer_1">
    <g>
      <path d="M64.5947,139.8356c6.2319,3.4814,11.1167,8.5347,14.6538,15.1587,3.5371,6.6274,5.3057,14.4858,5.3057,23.5806,0,8.6484-1.7686,16.2832-5.3057,22.9072-3.5371,6.627-8.4507,11.791-14.7378,15.4961-6.29,3.7061-13.3643,5.5586-21.2231,5.5586-6.9634,0-12.9141-1.2637-17.854-3.79-4.9424-2.5264-8.8164-5.9795-11.6216-10.3584v46.8242H0v-119.5879h11.959l1.853,13.8115c7.1846-9.8799,17.0117-14.8223,29.4756-14.8223,7.9717,0,15.0752,1.7422,21.3071,5.2217ZM62.5737,201.3981c5.2212-5.8955,7.832-13.501,7.832-22.8232s-2.6108-16.9277-7.832-22.8223c-5.2217-5.8955-12.1011-8.8428-20.6333-8.8428-5.5034,0-10.4165,1.3208-14.7383,3.958-4.3237,2.6396-7.6636,6.3452-10.0215,11.1172-2.3584,4.7734-3.5371,10.1895-3.5371,16.2529,0,6.1777,1.1787,11.707,3.5371,16.5908,2.3579,4.8848,5.6978,8.6748,10.0215,11.3701,4.3218,2.6943,9.2349,4.042,14.7383,4.042,8.5322,0,15.4116-2.9473,20.6333-8.8428Z"/>
      <path d="M164.728,147.5832c5.8369,3.3691,10.3848,8.0298,13.6431,13.9805,3.2554,5.9526,4.8843,12.8013,4.8843,20.5483,0,8.4219-1.8525,15.665-5.5581,21.7285s-8.7031,10.6689-14.9907,13.8115c-6.29,3.1445-13.1958,4.7158-20.7173,4.7158-8.5352,0-15.9463-1.6553-22.2334-4.9688-6.29-3.3105-11.1455-7.832-14.5693-13.5586-3.4268-5.7266-5.3638-12.0693-5.811-19.0332h14.1484c.6738,7.0742,3.5635,12.998,8.6743,17.7695,5.1084,4.7744,11.7061,7.1592,19.791,7.1592,4.7163,0,9.1216-1.0371,13.2222-3.1162,4.0977-2.0762,7.3818-5.1924,9.853-9.3486,2.4688-4.1523,3.7056-9.1504,3.7056-14.9902,0-8.085-2.4155-14.6543-7.2427-19.707-4.8291-5.0527-11.2847-7.5796-19.3696-7.5796-5.2793,0-10.501,1.124-15.6646,3.3687-5.166,2.2476-8.8716,6.459-11.1167,12.6328l-13.6431-.3369,3.874-67.0366h70.0688v12.9692h-57.0996l-2.6948,38.7397c3.4795-4.4897,7.832-7.748,13.0537-9.769s10.5273-3.0317,15.917-3.0317c7.4111,0,14.0352,1.6841,19.8755,5.0527Z"/>
      <path class="uuid-75804d5e-37bf-4b9f-964c-f39ce1584190" d="M244.9019,103.6222c13.6982,0,24.3096,2.6948,31.834,8.0845,7.5215,5.3901,11.2852,13.0273,11.2852,22.9072,0,7.3008-2.0215,13.1958-6.0645,17.6855-4.0415,4.4927-9.7686,7.4111-17.1797,8.7588,8.7588,1.124,15.5215,3.9316,20.2969,8.4219,4.7715,4.4922,7.1582,10.7793,7.1582,18.8643,0,10.332-3.9316,18.4434-11.791,24.3389-7.8608,5.8955-18.9775,8.8428-33.3496,8.8428h-46.9932v-117.9038h44.8037ZM225.3633,152.131h20.2124c5.3896,0,9.6006-1.2896,12.6323-3.874,3.0317-2.5815,4.5479-6.0635,4.5479-10.4429s-1.5161-7.8584-4.5479-10.4429c-3.0317-2.5815-7.2427-3.874-12.6323-3.874h-20.2124v28.6338ZM225.3633,201.4821h21.8965c6.0635,0,10.751-1.2891,14.0645-3.874,3.3105-2.5811,4.9688-6.1738,4.9688-10.7793,0-4.8271-1.6846-8.5615-5.0532-11.2012-3.3687-2.6367-8.0293-3.958-13.98-3.958h-21.8965v29.8125Z"/>
      <path class="uuid-75804d5e-37bf-4b9f-964c-f39ce1584190" d="M359.7739,134.9508v21.5596h-9.4326c-6.7373,0-11.6797,2.021-14.8223,6.0635-3.1455,4.043-4.7158,9.5459-4.7158,16.5068v42.4453h-23.75v-86.5752h21.5596l2.1904,12.9692c2.5811-4.2661,5.7812-7.4951,9.6006-9.6846,3.8154-2.1899,8.9268-3.2847,15.3271-3.2847h4.043Z"/>
      <path class="uuid-75804d5e-37bf-4b9f-964c-f39ce1584190" d="M453.0854,201.4821v20.0439h-12.1279c-10.8926,0-16.2275-4.7158-16.001-14.1484-3.1455,4.9424-7.0186,8.7031-11.6221,11.2852-4.6055,2.584-10.1641,3.874-16.6748,3.874-9.6592,0-17.4326-2.2158-23.3281-6.6533-5.8955-4.4346-8.8428-10.6953-8.8428-18.7803,0-9.2061,3.3945-16.3096,10.1904-21.3066,6.792-4.9951,16.6455-7.4961,29.5596-7.4961h17.1807v-4.2109c0-3.9287-1.4609-7.0449-4.3789-9.3477-2.9219-2.3003-6.8506-3.4531-11.791-3.4531-4.3789,0-7.9746.9556-10.7793,2.8638-2.8086,1.9106-4.4932,4.4922-5.0537,7.7485h-22.9062c.7842-8.8696,4.7158-15.7495,11.79-20.6338,7.0742-4.8848,16.4482-7.3271,28.1289-7.3271,12.2373,0,21.6982,2.6953,28.3809,8.085,6.6797,5.3901,10.0215,13.1958,10.0215,23.4121v30.4873c0,2.1338.4473,3.5947,1.3477,4.3789.8975.7871,2.2998,1.1787,4.2109,1.1787h2.6953ZM421.4194,184.1334h-17.3486c-4.9424,0-8.7881.9844-11.5381,2.9482-2.7529,1.9658-4.126,4.7451-4.126,8.3369,0,3.0322,1.1494,5.4482,3.4521,7.2432,2.3008,1.7969,5.416,2.6943,9.3486,2.6943,6.1738,0,11.0586-1.7686,14.6533-5.3057,3.5928-3.5371,5.4453-8.2793,5.5586-14.2324v-1.6846Z"/>
      <path class="uuid-75804d5e-37bf-4b9f-964c-f39ce1584190" d="M536.9634,143.3727c6.5107,6.29,9.7686,16.6748,9.7686,31.1602v46.9932h-23.749v-45.6455c0-14.9331-5.8398-22.4019-17.5176-22.4019-6.1768,0-10.9482,2.0791-14.3164,6.2319-3.3691,4.1553-5.0527,9.9951-5.0527,17.5176v44.2979h-23.75v-86.5752h20.7178l2.1895,10.7798c3.0322-3.7056,6.6797-6.5952,10.9482-8.6743,4.2666-2.0767,9.543-3.1162,15.833-3.1162,10.1064,0,18.415,3.145,24.9287,9.4326Z"/>
      <path class="uuid-75804d5e-37bf-4b9f-964c-f39ce1584190" d="M648.2974,103.6222v117.9038h-20.7168l-2.3584-11.959c-6.627,8.6484-15.6094,12.9697-26.9492,12.9697-7.6377,0-14.4854-1.8242-20.5488-5.4746-6.0645-3.6475-10.8096-8.8428-14.2334-15.5801-3.4258-6.7373-5.1367-14.54-5.1367-23.4121,0-8.7588,1.7109-16.4775,5.1367-23.1597,3.4238-6.6797,8.1953-11.8457,14.3174-15.4961,6.1191-3.6475,12.9961-5.4741,20.6328-5.4741,11.2275,0,19.9307,3.9321,26.1074,11.7905v-42.1084h23.749ZM619.1587,196.3454c3.8164-4.5479,5.7266-10.5273,5.7266-17.9385,0-7.5215-1.9102-13.585-5.7266-18.1909-3.8184-4.603-8.9268-6.9058-15.3271-6.9058s-11.5381,2.3027-15.4121,6.9058c-3.874,4.606-5.8115,10.6118-5.8115,18.022s1.9375,13.4199,5.8115,18.0225c3.874,4.6064,9.0107,6.9062,15.4121,6.9062s11.5088-2.2734,15.3271-6.8213Z"/>
      <path class="uuid-75804d5e-37bf-4b9f-964c-f39ce1584190" d="M811.4491,201.4821v20.0439h-12.1279c-10.8926,0-16.2275-4.7158-16.001-14.1484-3.1455,4.9424-7.0186,8.7031-11.6221,11.2852-4.6055,2.584-10.1641,3.874-16.6748,3.874-9.6592,0-17.4326-2.2158-23.3281-6.6533-5.8955-4.4346-8.8428-10.6953-8.8428-18.7803,0-9.2061,3.3945-16.3096,10.1904-21.3066,6.792-4.9951,16.6455-7.4961,29.5596-7.4961h17.1807v-4.2109c0-3.9287-1.4609-7.0449-4.3789-9.3477-2.9219-2.3003-6.8506-3.4531-11.791-3.4531-4.3789,0-7.9746.9556-10.7793,2.8638-2.8086,1.9106-4.4932,4.4922-5.0537,7.7485h-22.9062c.7842-8.8696,4.7158-15.7495,11.79-20.6338,7.0742-4.8848,16.4482-7.3271,28.1289-7.3271,12.2373,0,21.6982,2.6953,28.3809,8.085,6.6797,5.3901,10.0215,13.1958,10.0215,23.4121v30.4873c0,2.1338.4473,3.5947,1.3477,4.3789.8975.7871,2.2998,1.1787,4.2109,1.1787h2.6953ZM779.783,184.1334h-17.3486c-4.9424,0-8.7881.9844-11.5381,2.9482-2.7529,1.9658-4.126,4.7451-4.126,8.3369,0,3.0322,1.1494,5.4482,3.4521,7.2432,2.3008,1.7969,5.416,2.6943,9.3486,2.6943,6.1738,0,11.0586-1.7686,14.6533-5.3057,3.5928-3.5371,5.4453-8.2793,5.5586-14.2324v-1.6846Z"/>
      <path class="uuid-75804d5e-37bf-4b9f-964c-f39ce1584190" d="M891.284,139.2458c6.0635,3.5371,10.8066,8.6479,14.2324,15.3276,3.4238,6.6821,5.1377,14.5142,5.1377,23.4966,0,8.7588-1.7139,16.5068-5.1377,23.2441-3.4258,6.7373-8.1689,11.959-14.2324,15.6641-6.0635,3.7061-12.9141,5.5586-20.5488,5.5586-6.0635,0-11.3428-1.1504-15.833-3.4531-4.4922-2.2998-8.1982-5.416-11.1162-9.3477l-2.3584,11.79h-20.7178v-117.9038h23.75v42.2769c6.624-7.9717,15.3271-11.959,26.1064-11.959,7.748,0,14.6543,1.7686,20.7178,5.3057ZM880.6727,196.2604c3.9297-4.6025,5.8955-10.6113,5.8955-18.0225s-1.9658-13.416-5.8955-18.022c-3.9316-4.603-9.0957-6.9058-15.4961-6.9058s-11.5117,2.2739-15.3271,6.8218c-3.8193,4.5474-5.7266,10.5269-5.7266,17.938,0,7.5244,1.9072,13.5879,5.7266,18.1904,3.8154,4.6064,8.9268,6.9062,15.3271,6.9062s11.5645-2.2998,15.4961-6.9062Z"/>
      <g>
        <path class="uuid-39c80408-b5f2-49f4-a9d5-787c4411b2ce" d="M742.5749,40.757c0-13.4389-10.8943-24.3333-24.3333-24.3333-2.824,0-5.5332.4865-8.0552,1.3711-2.8569-10.262-12.2644-17.7948-23.4373-17.7948-11.7595,0-21.5706,8.3414-23.8391,19.4302-1.875-.4631-3.8342-.7132-5.8523-.7132-13.439,0-24.3333,10.8944-24.3333,24.3334,0,6.7487,2.7485,12.8543,7.1855,17.2622-.0854.8299-.1301,1.6719-.1301,2.5244,0,13.4389,10.8943,24.3333,24.3333,24.3333,2.4702,0,4.853-.3709,7.0994-1.0552v50.0317h-3.6692v63.5667c0,10.9248,8.8877,19.8125,19.8125,19.8125s19.8125-8.8877,19.8125-19.8125v-63.5667h-3.6692v-50.1881c2.3872.7825,4.9343,1.2115,7.5833,1.2115,13.439,0,24.3335-10.8944,24.3335-24.3333,0-1.5205-.1465-3.006-.4133-4.4493,4.6616-4.433,7.5723-10.6899,7.5723-17.6306ZM731.0959,54.2794l-2.2268,2.1174.5588,3.0215c.2114,1.1445.3188,2.2947.3188,3.4187,0,10.2914-8.3728,18.664-18.6643,18.664-1.9785,0-3.9358-.3127-5.8174-.9294l-7.4351-2.4373v58.0126h-20.948v-57.6852l-7.3215,2.2302c-1.7625.5369-3.5952.8091-5.4473.8091-10.2913,0-18.6641-8.3726-18.6641-18.664,0-.6434.0339-1.2974.1003-1.9437l.2776-2.694-1.9214-1.9088c-3.5544-3.531-5.5117-8.2332-5.5117-13.2402,0-10.2914,8.3726-18.6641,18.6638-18.6641,1.5098,0,3.0212.1843,4.4929.5477l5.7305,1.4155,1.1831-5.7831c1.7661-8.632,9.4558-14.8972,18.2849-14.8972,8.3469,0,15.7388,5.6114,17.9756,13.646l1.624,5.8335,5.7141-2.0043c1.9893-.6978,4.0681-1.0515,6.1787-1.0515,10.2913,0,18.6641,8.3726,18.6641,18.664,0,5.1573-2.0635,9.9596-5.8098,13.5223Z"/>
        <path class="uuid-75804d5e-37bf-4b9f-964c-f39ce1584190" d="M703.4992,109.2915v90.422c-.0001,8.9014-7.2421,16.1432-16.1434,16.1432-.197,0-.3958-.0036-.5942-.0106-8.5737-.3049-15.5491-7.7765-15.5491-16.6554v-89.8992h32.2868ZM665.5433,103.6222v95.5685c0,11.8274,9.197,21.9008,21.0168,22.3211.2659.0095.532.0142.7957.0142,12.0474,0,21.8125-9.7654,21.8125-21.8125v-96.0913h-43.625Z"/>
        <rect class="uuid-75804d5e-37bf-4b9f-964c-f39ce1584190" x="668.4803" y="133.3124" width="18.876" height="5.6689"/>
        <rect class="uuid-75804d5e-37bf-4b9f-964c-f39ce1584190" x="668.4803" y="149.204" width="18.876" height="5.6689"/>
        <rect class="uuid-75804d5e-37bf-4b9f-964c-f39ce1584190" x="668.4803" y="117.4208" width="18.876" height="5.6689"/>
        <rect class="uuid-75804d5e-37bf-4b9f-964c-f39ce1584190" x="668.4803" y="165.0956" width="18.876" height="5.6689"/>
        <rect class="uuid-75804d5e-37bf-4b9f-964c-f39ce1584190" x="668.4803" y="180.9872" width="18.876" height="5.6689"/>
        <rect class="uuid-75804d5e-37bf-4b9f-964c-f39ce1584190" x="668.4803" y="196.8793" width="18.876" height="5.6689"/>
      </g>
    </g>
  </g>
</svg>