<?xml version="1.0" encoding="UTF-8"?>
<svg id="uuid-0e92b499-a6fe-45d3-83b7-11b8d4b7a8aa" data-name="Layer_2" xmlns="http://www.w3.org/2000/svg" width="1613.3617" height="873.4885" viewBox="0 0 1613.3617 873.4885">
  <g id="uuid-19b9dbf5-b85d-40a7-80c9-427f4e09a20b" data-name="Layer_1">
    <g>
      <rect x="-200.5311" y="609.2962" width="505.3499" height="25.3202" transform="translate(-570.2913 575.8797) rotate(-80.9739)" style="fill:#7685F7"/>
      <polygon points="161.5107 822.1063 126.5351 794.4948 206.5006 336.7491 241.4762 364.3606 161.5107 822.1063" style="fill:#7685F7"/>
      <polygon points="298.0149 770.7241 253.0703 719.4734 333.7202 303.0742 378.6648 354.3249 298.0149 770.7241" style="fill:#7685F7"/>
      <polygon points="434.519 719.3418 379.6054 644.452 460.9397 269.3993 515.8533 344.2891 434.519 719.3418" style="fill:#7685F7"/>
      <polygon points="571.0231 667.9596 506.1405 569.4306 588.1593 235.7244 653.0419 334.2534 571.0231 667.9596" style="fill:#7685F7"/>
      <polygon points="707.5272 616.5774 632.6756 494.4092 715.3788 202.0495 790.2304 324.2176 707.5272 616.5774" style="fill:#7685F7"/>
      <polygon points="844.0313 565.1952 759.2108 419.3878 842.5984 168.3745 927.4189 314.1819 844.0313 565.1952" style="fill:#7685F7"/>
      <polygon points="980.5354 513.8129 885.7459 344.3664 969.8179 134.6996 1064.6075 304.1462 980.5354 513.8129" style="fill:#7685F7"/>
      <polygon points="1117.0396 462.4307 1012.281 269.345 1097.0375 101.0247 1201.796 294.1104 1117.0396 462.4307" style="fill:#7685F7"/>
      <polygon points="1253.5437 411.0485 1138.8161 194.3236 1224.257 67.3498 1338.9846 284.0747 1253.5437 411.0485" style="fill:#7685F7"/>
      <polygon points="1390.0478 359.6663 1265.3513 119.3022 1351.4766 33.6749 1476.1731 274.0389 1390.0478 359.6663" style="fill:#7685F7"/>
      <rect x="1453.8985" y="5.9593" width="97.4511" height="296.3655" transform="translate(94.0417 699.6092) rotate(-27.0257)" style="fill:#7685F7"/>
    </g>
  </g>
</svg>