<?xml version="1.0" encoding="UTF-8"?>
<svg id="uuid-0144bde5-2358-4e36-bcd4-6e06ee8f9171" data-name="Layer_2" xmlns="http://www.w3.org/2000/svg" width="81.4063" height="94" viewBox="0 0 81.4063 94">
  <defs>
    <style>
      .uuid-48f93084-3516-4d8d-b3bb-25688bb2a244 {
        fill: #7685f7;
      }
    </style>
  </defs>
  <g id="uuid-22541f19-c213-4a05-9294-769fad96f9e2" data-name="Layer_2">
    <g id="uuid-4d0bf77a-dbe1-42ae-8c47-d56f15ee79f2" data-name="Layer_3">
      <path class="uuid-48f93084-3516-4d8d-b3bb-25688bb2a244" d="M40.7031,0L0,23.5v46.9999l40.7031,23.5,40.7032-23.5V23.5L40.7031,0ZM10.1757,45.0417c-1.8733-1.0815-3.3919-3.7119-3.3919-5.875s1.5186-3.0399,3.3919-1.9584c1.8733,1.0816,3.3919,3.712,3.3919,5.8751s-1.5186,3.0399-3.3919,1.9583ZM20.3515,62.6667c-1.8733-1.0816-3.3919-3.7119-3.3919-5.8751s1.5186-3.0398,3.3919-1.9583c1.8733,1.0816,3.392,3.7119,3.392,5.875s-1.5187,3.0399-3.392,1.9584ZM23.7435,25.4583c-1.8733,1.0816-4.9107,1.0816-6.784,0-1.8733-1.0815-1.8733-2.8351,0-3.9167,1.8733-1.0815,4.9107-1.0815,6.784,0,1.8733,1.0816,1.8733,2.8352,0,3.9167ZM30.5274,80.2916c-1.8733-1.0815-3.3919-3.7119-3.3919-5.875s1.5186-3.0399,3.3919-1.9583c1.8733,1.0815,3.3919,3.7119,3.3919,5.875s-1.5186,3.0399-3.3919,1.9583ZM44.0951,37.2084c-1.8734,1.0815-4.9107,1.0815-6.784,0-1.8733-1.0816-1.8733-2.8352,0-3.9167,1.8733-1.0816,4.9105-1.0816,6.784,0,1.8733,1.0815,1.8733,2.8351,0,3.9167ZM44.0951,25.4583c-1.8734,1.0816-4.9107,1.0816-6.784,0-1.8733-1.0815-1.8733-2.8351,0-3.9167,1.8733-1.0815,4.9105-1.0815,6.784,0,1.8733,1.0816,1.8733,2.8352,0,3.9167ZM44.0951,13.7084c-1.8734,1.0815-4.9107,1.0815-6.784,0-1.8733-1.0816-1.8733-2.8352,0-3.9167,1.8733-1.0816,4.9105-1.0816,6.784,0,1.8733,1.0815,1.8733,2.8351,0,3.9167ZM61.0547,62.6667c-1.8733,1.0815-3.3919.2047-3.3919-1.9584s1.5186-4.7934,3.3919-5.875c1.8733-1.0815,3.3919-.2048,3.3919,1.9583s-1.5186,4.7935-3.3919,5.8751ZM64.4466,25.4583c-1.8733,1.0816-4.9105,1.0816-6.7838,0-1.8733-1.0815-1.8733-2.8351,0-3.9167,1.8733-1.0815,4.9105-1.0815,6.7838,0,1.8734,1.0816,1.8734,2.8352,0,3.9167Z"/>
    </g>
  </g>
</svg>