<?xml version="1.0" encoding="UTF-8"?>
<svg id="uuid-fce29d9e-389d-4949-ac10-1482b33139ad" data-name="Layer_2" xmlns="http://www.w3.org/2000/svg" width="81.4063" height="94" viewBox="0 0 81.4063 94">
  <defs>
    <style>
      .uuid-b11404ff-d1e2-4de5-9da0-8d032d89cf84 {
        fill: #7685f7;
      }
    </style>
  </defs>
  <g id="uuid-0dc76c93-ae72-40f4-9e8a-88177ac96884" data-name="Layer_2">
    <g id="uuid-7f6155d6-11ad-4b18-a2ea-5d042680a02d" data-name="Layer_3">
      <path class="uuid-b11404ff-d1e2-4de5-9da0-8d032d89cf84" d="M40.7031,0L0,23.5v46.9999l40.7031,23.5,40.7032-23.5V23.5L40.7031,0ZM10.1757,68.5417c-1.8733-1.0816-3.3919-3.7119-3.3919-5.875s1.5186-3.0399,3.3919-1.9584c1.8733,1.0816,3.3919,3.7119,3.3919,5.8751s-1.5186,3.0398-3.3919,1.9583ZM10.1757,45.0417c-1.8733-1.0815-3.3919-3.7119-3.3919-5.875s1.5186-3.0399,3.3919-1.9584c1.8733,1.0816,3.3919,3.712,3.3919,5.8751s-1.5186,3.0399-3.3919,1.9583ZM30.5274,80.2916c-1.8733-1.0815-3.3919-3.7119-3.3919-5.875s1.5186-3.0399,3.3919-1.9583c1.8733,1.0815,3.3919,3.7119,3.3919,5.875s-1.5186,3.0399-3.3919,1.9583ZM30.5274,56.7916c-1.8733-1.0815-3.3919-3.7119-3.3919-5.875s1.5186-3.0399,3.3919-1.9583c1.8733,1.0815,3.3919,3.7119,3.3919,5.875s-1.5186,3.0399-3.3919,1.9583ZM44.0951,25.4583c-1.8734,1.0816-4.9107,1.0816-6.784,0-1.8733-1.0815-1.8733-2.8351,0-3.9167,1.8733-1.0815,4.9105-1.0815,6.784,0,1.8733,1.0816,1.8733,2.8352,0,3.9167ZM50.879,80.2916c-1.8733,1.0816-3.3919.2048-3.3919-1.9583s1.5186-4.7935,3.3919-5.875c1.8733-1.0816,3.3919-.2048,3.3919,1.9583s-1.5186,4.7935-3.3919,5.875ZM71.2306,45.0417c-1.8733,1.0816-3.3919.2048-3.3919-1.9583s1.5186-4.7935,3.3919-5.8751c1.8733-1.0815,3.3919-.2047,3.3919,1.9584s-1.5186,4.7935-3.3919,5.875Z"/>
    </g>
  </g>
</svg>